<svg width="160" height="24" viewBox="0 0 160 24" fill="none" xmlns="http://www.w3.org/2000/svg">
<g clip-path="url(#clip0_125_42)">
<path d="M19.4672 23.3152L12.0002 17.8272L4.5332 23.3152L7.4002 14.4522L-0.0628052 8.99922H9.15119L12.0002 0.121216L14.8492 8.99922H24.0622L16.6002 14.4522L19.4672 23.3152Z" fill="#848689"/>
</g>
<g clip-path="url(#clip1_125_42)">
<path d="M53.4672 23.3152L46.0002 17.8272L38.5332 23.3152L41.4002 14.4522L33.9372 8.99922H43.1512L46.0002 0.121216L48.8492 8.99922H58.0622L50.6002 14.4522L53.4672 23.3152Z" fill="#848689"/>
</g>
<g clip-path="url(#clip2_125_42)">
<path d="M87.4672 23.3152L80.0002 17.8272L72.5332 23.3152L75.4002 14.4522L67.9372 8.99922H77.1512L80.0002 0.121216L82.8492 8.99922H92.0622L84.6002 14.4522L87.4672 23.3152Z" fill="#848689"/>
</g>
<g clip-path="url(#clip3_125_42)">
<path d="M121.467 23.3152L114 17.8272L106.533 23.3152L109.4 14.4522L101.937 8.99922H111.151L114 0.121216L116.849 8.99922H126.062L118.6 14.4522L121.467 23.3152Z" fill="#848689"/>
</g>
<g clip-path="url(#clip4_125_42)">
<path d="M155.467 23.3152L148 17.8272L140.533 23.3152L143.4 14.4522L135.937 8.99922H145.151L148 0.121216L150.849 8.99922H160.062L152.6 14.4522L155.467 23.3152Z" fill="#848689"/>
</g>
<defs>
<clipPath id="clip0_125_42">
<rect width="24" height="24" fill="white"/>
</clipPath>
<clipPath id="clip1_125_42">
<rect width="24" height="24" fill="white" transform="translate(34)"/>
</clipPath>
<clipPath id="clip2_125_42">
<rect width="24" height="24" fill="white" transform="translate(68)"/>
</clipPath>
<clipPath id="clip3_125_42">
<rect width="24" height="24" fill="white" transform="translate(102)"/>
</clipPath>
<clipPath id="clip4_125_42">
<rect width="24" height="24" fill="white" transform="translate(136)"/>
</clipPath>
</defs>
</svg>
