<svg width="78" height="78" viewBox="0 0 78 78" fill="none" xmlns="http://www.w3.org/2000/svg">
<path d="M0 78V17.3333H17.3333V0H60.6667V34.6667H78V78H43.3333V60.6667H34.6667V78H0ZM8.66667 69.3333H17.3333V60.6667H8.66667V69.3333ZM8.66667 52H17.3333V43.3333H8.66667V52ZM8.66667 34.6667H17.3333V26H8.66667V34.6667ZM26 52H34.6667V43.3333H26V52ZM26 34.6667H34.6667V26H26V34.6667ZM26 17.3333H34.6667V8.66667H26V17.3333ZM43.3333 52H52V43.3333H43.3333V52ZM43.3333 34.6667H52V26H43.3333V34.6667ZM43.3333 17.3333H52V8.66667H43.3333V17.3333ZM60.6667 69.3333H69.3333V60.6667H60.6667V69.3333ZM60.6667 52H69.3333V43.3333H60.6667V52Z" fill="black"/>
</svg>
