<svg width="19" height="19" viewBox="0 0 19 19" fill="none" xmlns="http://www.w3.org/2000/svg">
<mask id="mask0_9_515" style="mask-type:luminance" maskUnits="userSpaceOnUse" x="0" y="0" width="19" height="19">
<path d="M0 0H18.994V18.9917H0V0Z" fill="white"/>
</mask>
<g mask="url(#mask0_9_515)">
<path fill-rule="evenodd" clip-rule="evenodd" d="M9.49702 0C6.91777 0 6.59436 0.0109325 5.5814 0.0571508C4.57056 0.103256 3.88018 0.263813 3.27611 0.498599C2.65159 0.741264 2.12197 1.066 1.59396 1.59396C1.066 2.12197 0.741264 2.65159 0.498599 3.27611C0.263813 3.88018 0.103256 4.57056 0.0571508 5.5814C0.0109325 6.59436 0 6.91777 0 9.49702C0 12.0762 0.0109325 12.3996 0.0571508 13.4126C0.103256 14.4235 0.263813 15.1138 0.498599 15.7179C0.741264 16.3424 1.066 16.872 1.59396 17.4C2.12197 17.928 2.65159 18.2527 3.27611 18.4954C3.88018 18.7302 4.57056 18.8908 5.5814 18.9369C6.59436 18.9831 6.91777 18.994 9.49702 18.994C12.0762 18.994 12.3996 18.9831 13.4126 18.9369C14.4235 18.8908 15.1138 18.7302 15.7179 18.4954C16.3424 18.2527 16.872 17.928 17.4 17.4C17.928 16.872 18.2527 16.3424 18.4954 15.7179C18.7302 15.1138 18.8908 14.4235 18.9369 13.4126C18.9831 12.3996 18.994 12.0762 18.994 9.49702C18.994 6.91777 18.9831 6.59436 18.9369 5.5814C18.8908 4.57056 18.7302 3.88018 18.4954 3.27611C18.2527 2.65159 17.928 2.12197 17.4 1.59396C16.872 1.066 16.3424 0.741264 15.7179 0.498599C15.1138 0.263813 14.4235 0.103256 13.4126 0.0571508C12.3996 0.0109325 12.0762 0 9.49702 0ZM9.49702 1.71117C12.0328 1.71117 12.3332 1.72086 13.3346 1.76655C14.2606 1.80877 14.7634 1.96348 15.0981 2.09354C15.5414 2.26583 15.8577 2.47162 16.19 2.80397C16.5224 3.13628 16.7282 3.45265 16.9005 3.89594C17.0305 4.23059 17.1852 4.73345 17.2275 5.6594C17.2731 6.66082 17.2828 6.9612 17.2828 9.49702C17.2828 12.0328 17.2731 12.3332 17.2275 13.3346C17.1852 14.2606 17.0305 14.7634 16.9005 15.0981C16.7282 15.5414 16.5224 15.8577 16.19 16.19C15.8577 16.5224 15.5414 16.7282 15.0981 16.9005C14.7634 17.0305 14.2606 17.1852 13.3346 17.2275C12.3333 17.2731 12.033 17.2828 9.49702 17.2828C6.96101 17.2828 6.66071 17.2731 5.6594 17.2275C4.73345 17.1852 4.23059 17.0305 3.89594 16.9005C3.45265 16.7282 3.13628 16.5224 2.80397 16.19C2.47166 15.8577 2.26583 15.5414 2.09354 15.0981C1.96348 14.7634 1.80877 14.2606 1.76655 13.3346C1.72086 12.3332 1.71117 12.0328 1.71117 9.49702C1.71117 6.9612 1.72086 6.66082 1.76655 5.6594C1.80877 4.73345 1.96348 4.23059 2.09354 3.89594C2.26583 3.45265 2.47162 3.13628 2.80397 2.80397C3.13628 2.47162 3.45265 2.26583 3.89594 2.09354C4.23059 1.96348 4.73345 1.80877 5.6594 1.76655C6.66082 1.72086 6.9612 1.71117 9.49702 1.71117Z" fill="white"/>
</g>
<path fill-rule="evenodd" clip-rule="evenodd" d="M9.49697 12.6626C7.7486 12.6626 6.33129 11.2453 6.33129 9.49697C6.33129 7.7486 7.7486 6.33129 9.49697 6.33129C11.2453 6.33129 12.6626 7.7486 12.6626 9.49697C12.6626 11.2453 11.2453 12.6626 9.49697 12.6626ZM9.49697 4.62012C6.80353 4.62012 4.62012 6.80353 4.62012 9.49697C4.62012 12.1904 6.80353 14.3738 9.49697 14.3738C12.1904 14.3738 14.3738 12.1904 14.3738 9.49697C14.3738 6.80353 12.1904 4.62012 9.49697 4.62012Z" fill="white"/>
<path fill-rule="evenodd" clip-rule="evenodd" d="M15.7063 4.4275C15.7063 5.05692 15.196 5.56713 14.5666 5.56713C13.9372 5.56713 13.427 5.05692 13.427 4.4275C13.427 3.79809 13.9372 3.28784 14.5666 3.28784C15.196 3.28784 15.7063 3.79809 15.7063 4.4275Z" fill="white"/>
</svg>
