<svg width="16" height="15" viewBox="0 0 16 15" fill="none" xmlns="http://www.w3.org/2000/svg">
<path fill-rule="evenodd" clip-rule="evenodd" d="M15.97 14.7719H12.55V9.52512C12.5587 9.13426 12.5115 8.74413 12.41 8.36616C12.2987 7.8774 11.9457 7.47612 11.47 7.29772C10.7265 7.02414 9.88844 7.24968 9.39 7.85752C9.10422 8.18179 8.94786 8.59713 8.95 9.02631C8.96 9.17487 8.95 9.32146 8.95 9.47101V14.6056C8.95 14.768 8.95 14.768 8.78 14.768C7.75 14.768 6.71 14.768 5.67 14.768C5.55 14.768 5.52 14.7355 5.52 14.6184C5.53 12.2972 5.53667 9.97703 5.54 7.6578C5.54 6.8058 5.54 5.9538 5.53 5.09983V4.80468H5.67C6.71 4.80468 7.75 4.80468 8.79 4.80468C8.91 4.80468 8.95 4.8342 8.95 4.95423C8.94 5.31136 8.95 5.67046 8.95 6.02759C8.94736 6.07564 8.95415 6.12374 8.97 6.16926L9.21 5.86329C9.81152 5.08554 10.7372 4.61575 11.73 4.5843C12.3508 4.53865 12.9744 4.62246 13.56 4.83026C14.1149 5.02951 14.6053 5.37165 14.98 5.82098C15.5212 6.50937 15.8477 7.33746 15.92 8.20481C15.93 8.34255 15.95 8.48127 15.97 8.61901V14.767V14.7719ZM0 1.49015C0.04 1.38094 0.06 1.26977 0.1 1.16253C0.258227 0.690581 0.632037 0.318808 1.11 0.158036C1.70286 -0.0773818 2.37029 -0.0486762 2.94 0.236743C3.62433 0.577782 3.9835 1.33447 3.81 2.06963C3.70377 2.68779 3.23737 3.18637 2.62 3.34172C2.07188 3.52657 1.47178 3.49122 0.95 3.24334C0.459877 3.01773 0.115282 2.56779 0.03 2.04208L0 1.96337V1.49408V1.49015ZM3.62 14.7719H3.49C2.45 14.7719 1.4 14.7719 0.35 14.7719C0.23 14.7719 0.21 14.7355 0.21 14.6263V4.81846H3.62V14.769V14.7719Z" fill="white"/>
</svg>
