<svg width="250" height="250" viewBox="0 0 250 250" fill="none" xmlns="http://www.w3.org/2000/svg">
<g clip-path="url(#clip0_108_12)">
<path d="M237.752 12.2503C229.79 4.64247 219.201 0.397003 208.189 0.397003C197.177 0.397003 186.589 4.64247 178.627 12.2503L16.7829 174.094C11.4486 179.399 7.21897 185.709 4.33854 192.659C1.45812 199.609 -0.015937 207.061 0.00161985 214.584V234.375C0.00161985 238.519 1.64782 242.494 4.57808 245.424C7.50833 248.354 11.4826 250 15.6266 250H35.4183C42.9449 250.021 50.4008 248.548 57.3544 245.667C64.308 242.787 70.6212 238.556 75.9287 233.219L237.752 71.3753C245.581 63.5288 249.978 52.8971 249.978 41.8128C249.978 30.7284 245.581 20.0968 237.752 12.2503V12.2503ZM53.8141 211.125C48.9223 215.985 42.3139 218.725 35.4183 218.75H31.2516V214.584C31.273 207.681 34.0124 201.065 38.8766 196.167L159.377 75.6982L174.304 90.6253L53.8141 211.125ZM215.627 49.2815L196.397 68.5419L181.46 53.6044L200.731 34.3753C202.741 32.4542 205.414 31.3822 208.194 31.3822C210.975 31.3822 213.648 32.4542 215.658 34.3753C217.622 36.3603 218.722 39.042 218.716 41.8348C218.71 44.6277 217.6 47.3047 215.627 49.2815V49.2815Z" fill="#111315"/>
</g>
<defs>
<clipPath id="clip0_108_12">
<rect width="250" height="250" fill="white"/>
</clipPath>
</defs>
</svg>
