<svg width="78" height="78" viewBox="0 0 78 78" fill="none" xmlns="http://www.w3.org/2000/svg">
<path d="M73.45 78C64.4222 78 55.4847 76.05 46.6375 72.15C37.7903 68.25 29.7556 62.6889 22.5333 55.4667C15.3111 48.2444 9.75 40.2278 5.85 31.4167C1.95 22.6056 0 13.65 0 4.55V0H25.5667L29.575 21.775L17.225 34.2333C18.8139 37.05 20.5833 39.7222 22.5333 42.25C24.4833 44.7778 26.5778 47.125 28.8167 49.2917C30.9111 51.3861 33.2042 53.3903 35.6958 55.3042C38.1875 57.2181 40.8778 59.0056 43.7667 60.6667L56.3333 48.1L78 52.5417V78H73.45ZM13.1083 26L20.2583 18.85L18.4167 8.66667H8.775C9.13611 11.9167 9.67778 14.9681 10.4 17.8208C11.1222 20.6736 12.025 23.4 13.1083 26ZM51.8917 64.7833C54.7806 66.0111 57.6875 66.9861 60.6125 67.7083C63.5375 68.4306 66.4444 68.9 69.3333 69.1167V59.5833L59.15 57.525L51.8917 64.7833Z" fill="black"/>
</svg>
