<svg width="31" height="31" viewBox="0 0 31 31" fill="none" xmlns="http://www.w3.org/2000/svg">
<path fill-rule="evenodd" clip-rule="evenodd" d="M15.5 0C6.94012 0 0 6.93883 0 15.5C0 22.0668 4.08554 27.6752 9.85154 29.9331C9.71592 28.7073 9.59321 26.8266 9.90579 25.4885C10.1874 24.2782 11.7232 17.7837 11.7232 17.7837C11.7232 17.7837 11.2595 16.855 11.2595 15.4819C11.2595 13.3274 12.5085 11.718 14.0637 11.718C15.385 11.718 16.0244 12.7113 16.0244 13.9009C16.0244 15.23 15.1784 17.2179 14.7405 19.0611C14.375 20.6034 15.5142 21.8628 17.0358 21.8628C19.7909 21.8628 21.908 18.9578 21.908 14.765C21.908 11.0541 19.242 8.45912 15.4341 8.45912C11.0244 8.45912 8.43587 11.7671 8.43587 15.1848C8.43587 16.5165 8.94867 17.9464 9.58933 18.7214C9.71592 18.8751 9.734 19.0107 9.69654 19.167L9.26642 20.9237C9.19796 21.2079 9.04167 21.2686 8.74717 21.1317C6.81096 20.2301 5.60067 17.4 5.60067 15.1267C5.60067 10.2378 9.15275 5.74662 15.8423 5.74662C21.2195 5.74662 25.398 9.579 25.398 14.6992C25.398 20.0415 22.0307 24.3402 17.3548 24.3402C15.7842 24.3402 14.3078 23.5251 13.8027 22.5602L12.8366 26.2454C12.4865 27.5926 11.5423 29.2808 10.9094 30.309C12.3612 30.7572 13.9022 31 15.5 31C24.0599 31 31 24.0599 31 15.5C31 6.93883 24.0599 0 15.5 0Z" fill="#111315"/>
</svg>
