<svg width="23" height="23" viewBox="0 0 23 23" fill="none" xmlns="http://www.w3.org/2000/svg">
<path d="M21.435 23L13.1149 14.6847C12.4906 15.2148 11.7607 15.6283 10.925 15.9252C10.0894 16.2221 9.19619 16.3706 8.24555 16.3706C5.94167 16.3706 3.99144 15.5712 2.39486 13.9724C0.798288 12.3736 0 10.4446 0 8.1853C0 5.92601 0.799137 3.99696 2.39741 2.39816C3.99567 0.799388 5.92931 0 8.19835 0C10.4674 0 12.3958 0.799388 13.9836 2.39816C15.5714 3.99696 16.3652 5.92758 16.3652 8.19002C16.3652 9.09916 16.2222 9.96962 15.936 10.8014C15.6499 11.6332 15.2207 12.4138 14.6484 13.1432L23 21.4345L21.435 23ZM8.21676 14.2263C9.88916 14.2263 11.3081 13.6362 12.4735 12.456C13.6389 11.2759 14.2216 9.85229 14.2216 8.1853C14.2216 6.5183 13.6385 5.09473 12.4724 3.91458C11.3062 2.73441 9.88769 2.14433 8.21676 2.14433C6.52833 2.14433 5.09403 2.73441 3.91387 3.91458C2.73371 5.09473 2.14363 6.5183 2.14363 8.1853C2.14363 9.85229 2.73334 11.2759 3.91277 12.456C5.09218 13.6362 6.52684 14.2263 8.21676 14.2263Z" fill="white"/>
</svg>
