<svg width="250" height="250" viewBox="0 0 250 250" fill="none" xmlns="http://www.w3.org/2000/svg">
<g clip-path="url(#clip0_108_20)">
<path d="M235.021 88.5409C242.226 81.2329 247.108 71.9574 249.053 61.8813C250.998 51.8053 249.92 41.379 245.954 31.9143C241.988 22.4497 235.311 14.3695 226.763 8.69061C218.216 3.01171 208.179 -0.0122384 197.917 -0.000730214H52.0838C41.8217 -0.0122384 31.7854 3.01171 23.2379 8.69061C14.6903 14.3695 8.01333 22.4497 4.04708 31.9143C0.0808321 41.379 -0.997473 51.8053 0.947845 61.8813C2.89316 71.9574 7.77519 81.2329 14.9796 88.5409C5.38176 98.2481 -0.00117493 111.348 -0.00117493 124.999C-0.00117493 138.65 5.38176 151.75 14.9796 161.458C7.77519 168.766 2.89316 178.041 0.947845 188.117C-0.997473 198.193 0.0808321 208.62 4.04708 218.084C8.01333 227.549 14.6903 235.629 23.2379 241.308C31.7854 246.987 41.8217 250.011 52.0838 249.999H197.917C208.179 250.011 218.216 246.987 226.763 241.308C235.311 235.629 241.988 227.549 245.954 218.084C249.92 208.62 250.998 198.193 249.053 188.117C247.108 178.041 242.226 168.766 235.021 161.458C244.619 151.75 250.002 138.65 250.002 124.999C250.002 111.348 244.619 98.2481 235.021 88.5409V88.5409ZM52.0838 145.833C46.5585 145.833 41.2594 143.638 37.3524 139.731C33.4454 135.824 31.2505 130.525 31.2505 124.999C31.2505 119.474 33.4454 114.175 37.3524 110.268C41.2594 106.361 46.5585 104.166 52.0838 104.166V109.374C52.0838 113.518 53.73 117.493 56.6603 120.423C59.5905 123.353 63.5648 124.999 67.7088 124.999C71.8528 124.999 75.8271 123.353 78.7574 120.423C81.6876 117.493 83.3338 113.518 83.3338 109.374V104.166H104.167V109.374C104.167 113.518 105.813 117.493 108.744 120.423C111.674 123.353 115.648 124.999 119.792 124.999C123.936 124.999 127.91 123.353 130.841 120.423C133.771 117.493 135.417 113.518 135.417 109.374V104.166H197.917C203.442 104.166 208.742 106.361 212.649 110.268C216.556 114.175 218.75 119.474 218.75 124.999C218.75 130.525 216.556 135.824 212.649 139.731C208.742 143.638 203.442 145.833 197.917 145.833H52.0838ZM52.0838 31.2493V36.4576C52.0838 40.6016 53.73 44.5759 56.6603 47.5062C59.5905 50.4364 63.5648 52.0826 67.7088 52.0826C71.8528 52.0826 75.8271 50.4364 78.7574 47.5062C81.6876 44.5759 83.3338 40.6016 83.3338 36.4576V31.2493H104.167V36.4576C104.167 40.6016 105.813 44.5759 108.744 47.5062C111.674 50.4364 115.648 52.0826 119.792 52.0826C123.936 52.0826 127.91 50.4364 130.841 47.5062C133.771 44.5759 135.417 40.6016 135.417 36.4576V31.2493H197.917C203.442 31.2493 208.742 33.4442 212.649 37.3512C216.556 41.2582 218.75 46.5573 218.75 52.0826C218.75 57.608 216.556 62.907 212.649 66.814C208.742 70.721 203.442 72.9159 197.917 72.9159H52.0838C46.5585 72.9159 41.2594 70.721 37.3524 66.814C33.4454 62.907 31.2505 57.608 31.2505 52.0826C31.2505 46.5573 33.4454 41.2582 37.3524 37.3512C41.2594 33.4442 46.5585 31.2493 52.0838 31.2493V31.2493ZM197.917 218.749H52.0838C46.5585 218.749 41.2594 216.554 37.3524 212.647C33.4454 208.74 31.2505 203.441 31.2505 197.916C31.2505 192.391 33.4454 187.092 37.3524 183.185C41.2594 179.278 46.5585 177.083 52.0838 177.083V182.291C52.0838 186.435 53.73 190.409 56.6603 193.339C59.5905 196.27 63.5648 197.916 67.7088 197.916C71.8528 197.916 75.8271 196.27 78.7574 193.339C81.6876 190.409 83.3338 186.435 83.3338 182.291V177.083H104.167V182.291C104.167 186.435 105.813 190.409 108.744 193.339C111.674 196.27 115.648 197.916 119.792 197.916C123.936 197.916 127.91 196.27 130.841 193.339C133.771 190.409 135.417 186.435 135.417 182.291V177.083H197.917C203.442 177.083 208.742 179.278 212.649 183.185C216.556 187.092 218.75 192.391 218.75 197.916C218.75 203.441 216.556 208.74 212.649 212.647C208.742 216.554 203.442 218.749 197.917 218.749Z" fill="#111315"/>
</g>
<defs>
<clipPath id="clip0_108_20">
<rect width="250" height="250" fill="white"/>
</clipPath>
</defs>
</svg>
