<svg width="19" height="15" viewBox="0 0 19 15" fill="none" xmlns="http://www.w3.org/2000/svg">
<path fill-rule="evenodd" clip-rule="evenodd" d="M18.95 1.75154C18.2403 2.05549 17.4889 2.25442 16.72 2.34184C17.5264 1.88059 18.1343 1.1461 18.43 0.275785C17.6639 0.711211 16.829 1.01716 15.96 1.18091C15.216 0.423706 14.1905 -0.00259251 13.12 0.000311804C12.1013 -0.0125556 11.1191 0.373289 10.3896 1.07295C9.66003 1.77261 9.24291 2.72875 9.23 3.73101C9.23249 4.0164 9.26601 4.3007 9.33 4.57907C6.22311 4.43932 3.31789 3.02518 1.32 0.680141C0.971539 1.24685 0.788188 1.89693 0.79 2.55926C0.791483 3.81607 1.44352 4.98559 2.52 5.66227C1.90418 5.64541 1.30113 5.48562 0.76 5.19594V5.24316C0.777935 7.03911 2.08528 8.57143 3.88 8.90007C3.30552 9.05009 2.70428 9.07228 2.12 8.965C2.64827 10.499 4.10384 11.5373 5.75 11.5545C4.36319 12.5962 2.66483 13.157 0.92 13.1492C0.612639 13.1498 0.305489 13.1334 0 13.1001C1.78667 14.1992 3.85279 14.779 5.96 14.7726C8.8632 14.8301 11.6685 13.7394 13.7475 11.7449C15.8265 9.75036 17.0053 7.01874 17.02 4.16193C17.02 3.99861 17.02 3.83825 17.01 3.6769C17.7698 3.15431 18.427 2.50066 18.95 1.7476" fill="white"/>
</svg>
