<svg width="18" height="18" viewBox="0 0 18 18" fill="none" xmlns="http://www.w3.org/2000/svg">
<path fill-rule="evenodd" clip-rule="evenodd" d="M13.2035 10.7605C12.9837 10.6401 11.9042 10.0575 11.7016 9.97516C11.4992 9.89295 11.3515 9.85008 11.1936 10.0686C11.036 10.2865 10.5881 10.7746 10.4524 10.9191C10.316 11.0637 10.1849 11.0772 9.96485 10.9565C9.74563 10.8365 9.0331 10.5729 8.2068 9.77868C7.56377 9.16048 7.14206 8.4109 7.01978 8.18216C6.8973 7.95313 7.01888 7.83646 7.13515 7.72931C7.2395 7.63257 7.36878 7.47594 7.48565 7.34966C7.60212 7.22327 7.64328 7.13144 7.7234 6.98483C7.80352 6.83822 7.77127 6.70612 7.71929 6.59206C7.66742 6.47839 7.26113 5.35997 7.09148 4.90501C6.92174 4.45005 6.73266 4.51765 6.60197 4.51254C6.47148 4.50804 6.32297 4.4835 6.17365 4.47799C6.02444 4.47228 5.77968 4.51935 5.56637 4.73547C5.35286 4.95168 4.75439 5.47143 4.71313 6.57303C4.67187 7.67393 5.43388 8.76831 5.54013 8.92154C5.64649 9.07516 6.99524 11.4623 9.23669 12.444C11.4786 13.4255 11.4904 13.1262 11.9017 13.1042C12.3133 13.0826 13.2461 12.6121 13.4524 12.0968C13.6585 11.5814 13.675 11.1333 13.6227 11.0379C13.5701 10.9426 13.4233 10.8806 13.2035 10.7605ZM9.09228 16.0674C7.61003 16.0674 6.22943 15.6228 5.07666 14.8606L2.27169 15.7586L3.18342 13.048C2.30955 11.8444 1.7934 10.3659 1.7934 8.76831C1.7934 4.74318 5.06785 1.46863 9.09228 1.46863C13.1175 1.46863 16.3918 4.74318 16.3918 8.76831C16.3918 12.7931 13.1175 16.0674 9.09228 16.0674ZM9.09228 0C4.25006 0 0.324471 3.92549 0.324471 8.76831C0.324471 10.4248 0.784237 11.9742 1.58259 13.2959L0 18L4.85444 16.4459C6.11076 17.1404 7.55526 17.5365 9.09228 17.5365C13.9353 17.5365 17.8607 13.6105 17.8607 8.76831C17.8607 3.92549 13.9353 0 9.09228 0Z" fill="white"/>
</svg>
