<svg width="31" height="31" viewBox="0 0 31 31" fill="none" xmlns="http://www.w3.org/2000/svg">
<path d="M0 31L2.17904 23.0395C0.834417 20.7093 0.127875 18.0678 0.129167 15.3592C0.133042 6.89104 7.02408 0 15.491 0C19.5998 0.00129167 23.4567 1.60167 26.3578 4.50533C29.2575 7.409 30.854 11.2685 30.8528 15.3734C30.8489 23.8429 23.9578 30.7339 15.491 30.7339C12.9205 30.7326 10.3876 30.0881 8.14396 28.8636L0 31ZM8.52113 26.0826C10.686 27.3678 12.7526 28.1377 15.4858 28.139C22.5228 28.139 28.2552 22.4117 28.2591 15.3708C28.2617 8.31575 22.5564 2.59625 15.4961 2.59367C8.45396 2.59367 2.72542 8.32092 2.72283 15.3605C2.72154 18.2345 3.56371 20.3864 4.97808 22.6377L3.68771 27.3497L8.52113 26.0826ZM23.2293 19.025C23.1338 18.8648 22.878 18.7692 22.4931 18.5767C22.1095 18.3843 20.2223 17.4556 19.8697 17.3277C19.5184 17.1998 19.2626 17.1352 19.0056 17.5202C18.7498 17.9038 18.0136 18.7692 17.7901 19.025C17.5667 19.2807 17.3419 19.313 16.9583 19.1205C16.5747 18.9281 15.3373 18.5238 13.8712 17.2153C12.7307 16.1975 11.9595 14.9407 11.7361 14.5558C11.5126 14.1722 11.7128 13.9642 11.904 13.773C12.0771 13.6012 12.2876 13.3248 12.4801 13.1001C12.6751 12.8779 12.7384 12.7178 12.8676 12.4607C12.9955 12.205 12.9322 11.9802 12.8353 11.7878C12.7384 11.5966 11.9712 9.70687 11.6521 8.93833C11.3395 8.19046 11.0231 8.29121 10.788 8.27958L10.0518 8.26667C9.796 8.26667 9.38008 8.36225 9.02875 8.74717C8.67742 9.13208 7.68542 10.0595 7.68542 11.9492C7.68542 13.8389 9.06104 15.664 9.25221 15.9198C9.44467 16.1755 11.9583 20.0531 15.8087 21.7155C16.7245 22.1107 17.4401 22.3471 17.9968 22.5241C18.9165 22.816 19.7535 22.7747 20.4148 22.6765C21.1523 22.5667 22.6855 21.7478 23.0059 20.8514C23.3262 19.9537 23.3262 19.1851 23.2293 19.025Z" fill="#E6F9FF"/>
</svg>
