<svg width="250" height="250" viewBox="0 0 250 250" fill="none" xmlns="http://www.w3.org/2000/svg">
<g clip-path="url(#clip0_108_16)">
<path d="M52.0832 119.791C52.0832 115.647 53.7294 111.673 56.6597 108.743C59.59 105.812 63.5642 104.166 67.7082 104.166H182.292C186.436 104.166 190.41 105.812 193.34 108.743C196.27 111.673 197.917 115.647 197.917 119.791C197.917 123.935 196.27 127.909 193.34 130.84C190.41 133.77 186.436 135.416 182.292 135.416H67.7082C63.5642 135.416 59.59 133.77 56.6597 130.84C53.7294 127.909 52.0832 123.935 52.0832 119.791ZM67.7082 187.5H140.625C144.769 187.5 148.743 185.853 151.673 182.923C154.604 179.993 156.25 176.019 156.25 171.875C156.25 167.731 154.604 163.756 151.673 160.826C148.743 157.896 144.769 156.25 140.625 156.25H67.7082C63.5642 156.25 59.59 157.896 56.6597 160.826C53.7294 163.756 52.0832 167.731 52.0832 171.875C52.0832 176.019 53.7294 179.993 56.6597 182.923C59.59 185.853 63.5642 187.5 67.7082 187.5V187.5ZM250 67.7079V182.291C249.983 197.481 243.942 212.044 233.201 222.784C222.461 233.525 207.898 239.566 192.708 239.583H57.2916C42.102 239.566 27.5392 233.525 16.7985 222.784C6.05783 212.044 0.0164519 197.481 -9.15527e-05 182.291L-9.15527e-05 67.7079C0.0164519 52.5183 6.05783 37.9555 16.7985 27.2148C27.5392 16.4741 42.102 10.4327 57.2916 10.4162H192.708C207.898 10.4327 222.461 16.4741 233.201 27.2148C243.942 37.9555 249.983 52.5183 250 67.7079ZM83.3332 46.8745C83.3332 49.9649 84.2496 52.9858 85.9665 55.5553C87.6834 58.1248 90.1237 60.1275 92.9788 61.3102C95.8339 62.4928 98.9756 62.8022 102.007 62.1993C105.037 61.5964 107.822 60.1083 110.007 57.9231C112.192 55.7379 113.68 52.9538 114.283 49.9228C114.886 46.8919 114.576 43.7502 113.394 40.8951C112.211 38.04 110.209 35.5997 107.639 33.8828C105.07 32.1659 102.049 31.2495 98.9582 31.2495C94.8142 31.2495 90.84 32.8957 87.9097 35.826C84.9794 38.7562 83.3332 42.7305 83.3332 46.8745V46.8745ZM31.2499 46.8745C31.2499 49.9649 32.1663 52.9858 33.8832 55.5553C35.6001 58.1248 38.0404 60.1275 40.8955 61.3102C43.7506 62.4928 46.8922 62.8022 49.9232 62.1993C52.9541 61.5964 55.7383 60.1083 57.9235 57.9231C60.1087 55.7379 61.5968 52.9538 62.1997 49.9228C62.8026 46.8919 62.4931 43.7502 61.3105 40.8951C60.1279 38.04 58.1252 35.5997 55.5557 33.8828C52.9862 32.1659 49.9652 31.2495 46.8749 31.2495C42.7309 31.2495 38.7566 32.8957 35.8264 35.826C32.8961 38.7562 31.2499 42.7305 31.2499 46.8745ZM218.75 83.3329H31.2499V182.291C31.2499 189.198 33.9936 195.822 38.8773 200.705C43.7611 205.589 50.3849 208.333 57.2916 208.333H192.708C199.615 208.333 206.239 205.589 211.122 200.705C216.006 195.822 218.75 189.198 218.75 182.291V83.3329Z" fill="#111315"/>
</g>
<defs>
<clipPath id="clip0_108_16">
<rect width="250" height="250" fill="white"/>
</clipPath>
</defs>
</svg>
