<svg width="26" height="22" viewBox="0 0 26 22" fill="none" xmlns="http://www.w3.org/2000/svg">
<mask id="mask0_9_495" style="mask-type:luminance" maskUnits="userSpaceOnUse" x="0" y="0" width="26" height="22">
<path d="M0 0H26V21.2195H0V0Z" fill="white"/>
</mask>
<g mask="url(#mask0_9_495)">
<path fill-rule="evenodd" clip-rule="evenodd" d="M10.7805 13.9756V7.39024L16.6341 10.6831L10.7805 13.9756ZM23.4925 5.39943C23.24 4.45492 22.4962 3.71117 21.5518 3.45875C19.84 3 12.9756 3 12.9756 3C12.9756 3 6.11124 3 4.39942 3.45875C3.45502 3.71117 2.71117 4.45492 2.45873 5.39943C2 7.11123 2 10.6829 2 10.6829C2 10.6829 2 14.2545 2.45873 15.9664C2.71117 16.9109 3.45502 17.6547 4.39942 17.9072C6.11124 18.3659 12.9756 18.3659 12.9756 18.3659C12.9756 18.3659 19.84 18.3659 21.5518 17.9072C22.4962 17.6547 23.24 16.9109 23.4925 15.9664C23.9512 14.2545 23.9512 10.6829 23.9512 10.6829C23.9512 10.6829 23.9512 7.11123 23.4925 5.39943Z" fill="white"/>
</g>
</svg>
