<svg width="1056" height="103" viewBox="0 0 1056 103" fill="none" xmlns="http://www.w3.org/2000/svg">
<path d="M22.2 5.2L22.6504 3.76922L20.7 3.1552V5.2H22.2ZM22.2 94.8H20.7V96.8448L22.6504 96.2308L22.2 94.8ZM0.92 0.999993V-0.500007H-3.16077L-0.0514731 2.1429L0.92 0.999993ZM0.92 99L-0.0514724 97.8571L-3.16078 100.5H0.92V99ZM6.52 94.24L7.49147 95.3829L8.02 94.9337V94.24H6.52ZM6.52 5.76H8.02V5.06634L7.49147 4.61709L6.52 5.76ZM20.7 5.2V94.8H23.7V5.2H20.7ZM22.6504 96.2308C25.0346 95.4802 27.0724 93.4419 28.7754 90.7752C30.501 88.0731 32.0112 84.5264 33.2603 80.4134C35.7606 72.1803 37.28 61.46 37.28 50.14H34.28C34.28 61.22 32.7895 71.6397 30.3897 79.5416C29.1888 83.4961 27.7765 86.7656 26.2471 89.1605C24.6951 91.5905 23.1454 92.9298 21.7496 93.3692L22.6504 96.2308ZM37.28 50.14C37.28 38.6815 35.7609 27.8916 33.2608 19.6233C32.0118 15.4928 30.5017 11.937 28.7761 9.23019C27.0728 6.55851 25.0349 4.51989 22.6504 3.76922L21.7496 6.63077C23.1451 7.0701 24.6947 8.40898 26.2464 10.8429C27.7758 13.2418 29.1882 16.5197 30.3892 20.4916C32.7891 28.4284 34.28 38.9185 34.28 50.14H37.28ZM0.92 2.49999H22.2V-0.500007H0.92V2.49999ZM22.2 2.49999C30.8435 2.49999 37.7365 7.85433 42.5474 16.6969C47.365 25.5518 49.96 37.7117 49.96 50.7H52.96C52.96 37.3683 50.305 24.6782 45.1826 15.2631C40.0535 5.83565 32.3165 -0.500007 22.2 -0.500007V2.49999ZM49.96 50.7C49.96 63.6883 47.365 75.487 42.5594 83.9814C37.7701 92.4471 30.8855 97.5 22.2 97.5V100.5C32.2745 100.5 40.0199 94.5629 45.1706 85.4586C50.305 76.383 52.96 64.0317 52.96 50.7H49.96ZM22.2 97.5H0.92V100.5H22.2V97.5ZM1.89147 100.143L7.49147 95.3829L5.54853 93.0971L-0.0514724 97.8571L1.89147 100.143ZM8.02 94.24V5.76H5.02V94.24H8.02ZM7.49147 4.61709L1.89147 -0.142915L-0.0514731 2.1429L5.54853 6.90291L7.49147 4.61709ZM83.9947 94.24H82.4947V94.9448L83.0372 95.3946L83.9947 94.24ZM89.7347 99V100.5H93.8934L90.6922 97.8454L89.7347 99ZM62.5747 99L61.6172 97.8454L58.416 100.5H62.5747V99ZM68.3147 94.24L69.2722 95.3946L69.8147 94.9448V94.24H68.3147ZM68.3147 5.76H69.8147V5.05524L69.2722 4.60536L68.3147 5.76ZM62.5747 0.999993V-0.500007H58.416L61.6172 2.15463L62.5747 0.999993ZM89.7347 0.999993L90.6922 2.15463L93.8934 -0.500007H89.7347V0.999993ZM83.9947 5.76L83.0372 4.60536L82.4947 5.05524V5.76H83.9947ZM83.0372 95.3946L88.7772 100.155L90.6922 97.8454L84.9522 93.0854L83.0372 95.3946ZM89.7347 97.5H62.5747V100.5H89.7347V97.5ZM63.5322 100.155L69.2722 95.3946L67.3572 93.0854L61.6172 97.8454L63.5322 100.155ZM69.8147 94.24V5.76H66.8147V94.24H69.8147ZM69.2722 4.60536L63.5322 -0.154643L61.6172 2.15463L67.3572 6.91463L69.2722 4.60536ZM62.5747 2.49999H89.7347V-0.500007H62.5747V2.49999ZM88.7772 -0.154643L83.0372 4.60536L84.9522 6.91463L90.6922 2.15463L88.7772 -0.154643ZM82.4947 5.76V94.24H85.4947V5.76H82.4947ZM208.028 57.42H209.528V55.92H208.028V57.42ZM208.028 67.92L207.56 69.3452L209.528 69.9909V67.92H208.028ZM199.068 64.98L199.536 63.5548L198.094 63.0817L197.638 64.5288L199.068 64.98ZM199.768 37.96V39.46H201.707L201.22 37.5832L199.768 37.96ZM191.088 37.96L189.589 38.024L189.651 39.46H191.088V37.96ZM183.808 63.58L185.068 64.3934L186.562 62.08H183.808V63.58ZM171.348 63.58H169.848V65.08H171.348V63.58ZM171.348 57.42V55.92H169.848V57.42H171.348ZM206.528 57.42V67.92H209.528V57.42H206.528ZM208.496 66.4948L199.536 63.5548L198.6 66.4052L207.56 69.3452L208.496 66.4948ZM197.638 64.5288C191.261 84.7429 172.676 97.92 151.468 97.92V100.92C173.94 100.92 193.715 86.9371 200.499 65.4312L197.638 64.5288ZM151.468 97.92C124.462 97.92 103.828 76.2168 103.828 50.14H100.828C100.828 77.8232 122.755 100.92 151.468 100.92V97.92ZM103.828 50.14C103.828 23.4022 125.963 2.08 151.748 2.08V-0.920001C124.334 -0.920001 100.828 21.7178 100.828 50.14H103.828ZM151.748 2.08C173.737 2.08 192.746 16.8708 198.316 38.3368L201.22 37.5832C195.31 14.8092 175.119 -0.920001 151.748 -0.920001V2.08ZM199.768 36.46H191.088V39.46H199.768V36.46ZM192.587 37.896C192.222 29.3545 188.998 22.2144 183.642 17.2113C178.289 12.2118 170.908 9.44 162.388 9.44V12.44C170.248 12.44 176.867 14.9882 181.594 19.4037C186.318 23.8156 189.255 30.1855 189.589 38.024L192.587 37.896ZM162.388 9.44C149.371 9.44 136.548 15.8979 127.008 25.4738C117.468 35.0498 111.048 47.9068 111.048 60.92H114.048C114.048 48.8732 120.018 36.7402 129.133 27.5912C138.248 18.442 150.345 12.44 162.388 12.44V9.44ZM111.048 60.92C111.048 78.3936 123.465 90.98 140.828 90.98V87.98C125.151 87.98 114.048 76.7664 114.048 60.92H111.048ZM140.828 90.98C158.535 90.98 174.923 80.1121 185.068 64.3934L182.548 62.7665C172.814 77.8479 157.281 87.98 140.828 87.98V90.98ZM183.808 62.08H171.348V65.08H183.808V62.08ZM172.848 63.58V57.42H169.848V63.58H172.848ZM171.348 58.92H208.028V55.92H171.348V58.92ZM241.757 94.24H240.257V94.9448L240.8 95.3946L241.757 94.24ZM247.497 99V100.5H251.656L248.455 97.8454L247.497 99ZM220.337 99L219.38 97.8454L216.179 100.5H220.337V99ZM226.077 94.24L227.035 95.3946L227.577 94.9448V94.24H226.077ZM226.077 5.76H227.577V5.05524L227.035 4.60536L226.077 5.76ZM220.337 0.999993V-0.500007H216.179L219.38 2.15463L220.337 0.999993ZM247.497 0.999993L248.455 2.15463L251.656 -0.500007H247.497V0.999993ZM241.757 5.76L240.8 4.60536L240.257 5.05524V5.76H241.757ZM240.8 95.3946L246.54 100.155L248.455 97.8454L242.715 93.0854L240.8 95.3946ZM247.497 97.5H220.337V100.5H247.497V97.5ZM221.295 100.155L227.035 95.3946L225.12 93.0854L219.38 97.8454L221.295 100.155ZM227.577 94.24V5.76H224.577V94.24H227.577ZM227.035 4.60536L221.295 -0.154643L219.38 2.15463L225.12 6.91463L227.035 4.60536ZM220.337 2.49999H247.497V-0.500007H220.337V2.49999ZM246.54 -0.154643L240.8 4.60536L242.715 6.91463L248.455 2.15463L246.54 -0.154643ZM240.257 5.76V94.24H243.257V5.76H240.257ZM259.811 21.44H258.311L261.178 22.0555L259.811 21.44ZM259.811 0.999993V-0.500007H258.311V0.999993H259.811ZM306.011 0.999993H307.511V-0.500007H306.011V0.999993ZM306.011 21.44L304.643 22.0555L307.511 21.44H306.011ZM299.711 7.43999L301.078 6.82445L300.681 5.93999H299.711V7.43999ZM290.751 7.43999V5.93999H289.251V7.43999H290.751ZM290.751 94.24H289.251V94.9107L289.75 95.3579L290.751 94.24ZM296.071 99V100.5H299.997L297.071 97.8821L296.071 99ZM269.891 99L268.876 97.8955L266.041 100.5H269.891V99ZM275.071 94.24L276.086 95.3445L276.571 94.8988V94.24H275.071ZM275.071 7.43999H276.571V5.93999H275.071V7.43999ZM266.111 7.43999V5.93999H265.141L264.743 6.82445L266.111 7.43999ZM261.311 21.44V0.999993H258.311V21.44H261.311ZM259.811 2.49999H306.011V-0.500007H259.811V2.49999ZM304.511 0.999993V21.44H307.511V0.999993H304.511ZM307.379 20.8245L301.078 6.82445L298.343 8.05554L304.643 22.0555L307.379 20.8245ZM299.711 5.93999H290.751V8.93999H299.711V5.93999ZM289.251 7.43999V94.24H292.251V7.43999H289.251ZM289.75 95.3579L295.07 100.118L297.071 97.8821L291.751 93.1221L289.75 95.3579ZM296.071 97.5H269.891V100.5H296.071V97.5ZM270.906 100.104L276.086 95.3445L274.056 93.1355L268.876 97.8955L270.906 100.104ZM276.571 94.24V7.43999H273.571V94.24H276.571ZM275.071 5.93999H266.111V8.93999H275.071V5.93999ZM264.743 6.82445L258.443 20.8245L261.178 22.0555L267.479 8.05554L264.743 6.82445ZM332.615 27.46L334.097 27.2287L331.131 27.2426L332.615 27.46ZM326.175 71.42L324.691 71.2026L324.439 72.92H326.175V71.42ZM339.475 71.42V72.92H341.227L340.957 71.1887L339.475 71.42ZM328.555 0.999993V-0.500007H326.55L327.116 1.42324L328.555 0.999993ZM344.235 0.999993L345.717 0.768564L345.519 -0.500007H344.235V0.999993ZM358.795 94.24L357.313 94.4714L357.401 95.0323L357.837 95.3946L358.795 94.24ZM364.535 99V100.5H368.694L365.492 97.8454L364.535 99ZM337.095 99L336.151 97.8341L332.858 100.5H337.095V99ZM342.975 94.24L343.919 95.4059L344.589 94.8636L344.458 94.0119L342.975 94.24ZM340.455 77.86L341.938 77.6319L341.742 76.36H340.455V77.86ZM325.195 77.86V76.36H323.908L323.712 77.6319L325.195 77.86ZM322.675 94.24L321.192 94.0119L321.069 94.8156L321.675 95.3579L322.675 94.24ZM327.995 99V100.5H331.921L328.995 97.8821L327.995 99ZM311.055 99L310.055 97.8821L307.129 100.5H311.055V99ZM316.375 94.24L317.375 95.3579L317.776 94.9992L317.858 94.4676L316.375 94.24ZM329.955 5.76L331.438 5.98756L331.488 5.6573L331.394 5.33675L329.955 5.76ZM331.131 27.2426L324.691 71.2026L327.659 71.6374L334.099 27.6774L331.131 27.2426ZM326.175 72.92H339.475V69.92H326.175V72.92ZM340.957 71.1887L334.097 27.2287L331.133 27.6913L337.993 71.6513L340.957 71.1887ZM328.555 2.49999H344.235V-0.500007H328.555V2.49999ZM342.753 1.23142L357.313 94.4714L360.277 94.0086L345.717 0.768564L342.753 1.23142ZM357.837 95.3946L363.578 100.155L365.492 97.8454L359.753 93.0854L357.837 95.3946ZM364.535 97.5H337.095V100.5H364.535V97.5ZM338.039 100.166L343.919 95.4059L342.031 93.0741L336.151 97.8341L338.039 100.166ZM344.458 94.0119L341.938 77.6319L338.972 78.0881L341.492 94.4681L344.458 94.0119ZM340.455 76.36H325.195V79.36H340.455V76.36ZM323.712 77.6319L321.192 94.0119L324.158 94.4681L326.678 78.0881L323.712 77.6319ZM321.675 95.3579L326.995 100.118L328.995 97.8821L323.675 93.1221L321.675 95.3579ZM327.995 97.5H311.055V100.5H327.995V97.5ZM312.055 100.118L317.375 95.3579L315.375 93.1221L310.055 97.8821L312.055 100.118ZM317.858 94.4676L331.438 5.98756L328.472 5.53244L314.892 94.0124L317.858 94.4676ZM331.394 5.33675L329.994 0.576745L327.116 1.42324L328.516 6.18325L331.394 5.33675ZM395.956 5.76L395.039 4.57307L394.456 5.02344V5.76H395.956ZM395.956 92.56H394.456V94.06H395.956V92.56ZM405.196 92.56V94.06H406.166L406.564 93.1755L405.196 92.56ZM411.496 78.56H412.996L410.128 77.9445L411.496 78.56ZM411.496 99V100.5H412.996V99H411.496ZM374.676 99L373.705 97.8571L370.595 100.5H374.676V99ZM380.276 94.24L381.248 95.3829L381.776 94.9337V94.24H380.276ZM380.276 5.76H381.776V5.06634L381.248 4.61709L380.276 5.76ZM374.676 0.999993V-0.500007H370.595L373.705 2.1429L374.676 0.999993ZM402.116 0.999993L403.033 2.18692L406.511 -0.500007H402.116V0.999993ZM394.456 5.76V92.56H397.456V5.76H394.456ZM395.956 94.06H405.196V91.06H395.956V94.06ZM406.564 93.1755L412.864 79.1755L410.128 77.9445L403.828 91.9445L406.564 93.1755ZM409.996 78.56V99H412.996V78.56H409.996ZM411.496 97.5H374.676V100.5H411.496V97.5ZM375.648 100.143L381.248 95.3829L379.305 93.0971L373.705 97.8571L375.648 100.143ZM381.776 94.24V5.76H378.776V94.24H381.776ZM381.248 4.61709L375.648 -0.142915L373.705 2.1429L379.305 6.90291L381.248 4.61709ZM374.676 2.49999H402.116V-0.500007H374.676V2.49999ZM401.199 -0.186934L395.039 4.57307L396.873 6.94693L403.033 2.18692L401.199 -0.186934ZM461.858 27.04L463.292 26.5998L460.358 27.04H461.858ZM461.858 94.24H460.358V94.9107L460.858 95.3579L461.858 94.24ZM467.178 99V100.5H471.104L468.178 97.8821L467.178 99ZM450.098 99L449.098 97.8821L446.172 100.5H450.098V99ZM455.418 94.24L456.418 95.3579L456.918 94.9107V94.24H455.418ZM455.418 5.47999H456.918V4.75906L456.355 4.30869L455.418 5.47999ZM449.818 0.999993V-0.500007H445.542L448.881 2.1713L449.818 0.999993ZM470.538 0.999993L471.965 0.538747L471.63 -0.500007H470.538V0.999993ZM488.318 56.02L486.891 56.4812L488.434 61.2577L489.764 56.4175L488.318 56.02ZM503.438 0.999993V-0.500007H502.295L501.992 0.602515L503.438 0.999993ZM524.438 0.999993L525.32 2.2131L529.051 -0.500007H524.438V0.999993ZM518.278 5.47999L517.396 4.26689L516.778 4.71616V5.47999H518.278ZM518.278 94.24H516.778V94.9556L517.334 95.4059L518.278 94.24ZM524.158 99V100.5H528.395L525.102 97.8341L524.158 99ZM496.858 99L495.9 97.8454L492.699 100.5H496.858V99ZM502.598 94.24L503.555 95.3946L504.098 94.9448V94.24H502.598ZM502.598 29.7H504.098L501.148 29.3164L502.598 29.7ZM484.118 99.56L482.684 100L484.225 105.021L485.568 99.9436L484.118 99.56ZM460.358 27.04V94.24H463.358V27.04H460.358ZM460.858 95.3579L466.178 100.118L468.178 97.8821L462.858 93.1221L460.858 95.3579ZM467.178 97.5H450.098V100.5H467.178V97.5ZM451.098 100.118L456.418 95.3579L454.418 93.1221L449.098 97.8821L451.098 100.118ZM456.918 94.24V5.47999H453.918V94.24H456.918ZM456.355 4.30869L450.755 -0.171309L448.881 2.1713L454.481 6.6513L456.355 4.30869ZM449.818 2.49999H470.538V-0.500007H449.818V2.49999ZM469.111 1.46124L486.891 56.4812L489.745 55.5588L471.965 0.538747L469.111 1.46124ZM489.764 56.4175L504.884 1.39747L501.992 0.602515L486.872 55.6225L489.764 56.4175ZM503.438 2.49999H524.438V-0.500007H503.438V2.49999ZM523.556 -0.213111L517.396 4.26689L519.16 6.6931L525.32 2.2131L523.556 -0.213111ZM516.778 5.47999V94.24H519.778V5.47999H516.778ZM517.334 95.4059L523.214 100.166L525.102 97.8341L519.222 93.0741L517.334 95.4059ZM524.158 97.5H496.858V100.5H524.158V97.5ZM497.815 100.155L503.555 95.3946L501.64 93.0854L495.9 97.8454L497.815 100.155ZM504.098 94.24V29.7H501.098V94.24H504.098ZM501.148 29.3164L482.668 99.1764L485.568 99.9436L504.048 30.0836L501.148 29.3164ZM485.552 99.1198L463.292 26.5998L460.424 27.4802L482.684 100L485.552 99.1198ZM552.3 27.46L553.782 27.2287L550.816 27.2426L552.3 27.46ZM545.86 71.42L544.376 71.2026L544.124 72.92H545.86V71.42ZM559.16 71.42V72.92H560.912L560.642 71.1887L559.16 71.42ZM548.24 0.999993V-0.500007H546.235L546.801 1.42324L548.24 0.999993ZM563.92 0.999993L565.402 0.768564L565.204 -0.500007H563.92V0.999993ZM578.48 94.24L576.998 94.4714L577.086 95.0323L577.523 95.3946L578.48 94.24ZM584.22 99V100.5H588.379L585.178 97.8454L584.22 99ZM556.78 99L555.836 97.8341L552.543 100.5H556.78V99ZM562.66 94.24L563.604 95.4059L564.274 94.8636L564.143 94.0119L562.66 94.24ZM560.14 77.86L561.623 77.6319L561.427 76.36H560.14V77.86ZM544.88 77.86V76.36H543.593L543.398 77.6319L544.88 77.86ZM542.36 94.24L540.878 94.0119L540.754 94.8156L541.36 95.3579L542.36 94.24ZM547.68 99V100.5H551.606L548.68 97.8821L547.68 99ZM530.74 99L529.74 97.8821L526.814 100.5H530.74V99ZM536.06 94.24L537.06 95.3579L537.461 94.9992L537.543 94.4676L536.06 94.24ZM549.64 5.76L551.123 5.98756L551.174 5.6573L551.079 5.33675L549.64 5.76ZM550.816 27.2426L544.376 71.2026L547.344 71.6374L553.784 27.6774L550.816 27.2426ZM545.86 72.92H559.16V69.92H545.86V72.92ZM560.642 71.1887L553.782 27.2287L550.818 27.6913L557.678 71.6513L560.642 71.1887ZM548.24 2.49999H563.92V-0.500007H548.24V2.49999ZM562.438 1.23142L576.998 94.4714L579.962 94.0086L565.402 0.768564L562.438 1.23142ZM577.523 95.3946L583.263 100.155L585.178 97.8454L579.438 93.0854L577.523 95.3946ZM584.22 97.5H556.78V100.5H584.22V97.5ZM557.724 100.166L563.604 95.4059L561.716 93.0741L555.836 97.8341L557.724 100.166ZM564.143 94.0119L561.623 77.6319L558.658 78.0881L561.178 94.4681L564.143 94.0119ZM560.14 76.36H544.88V79.36H560.14V76.36ZM543.398 77.6319L540.878 94.0119L543.843 94.4681L546.363 78.0881L543.398 77.6319ZM541.36 95.3579L546.68 100.118L548.68 97.8821L543.36 93.1221L541.36 95.3579ZM547.68 97.5H530.74V100.5H547.68V97.5ZM531.74 100.118L537.06 95.3579L535.06 93.1221L529.74 97.8821L531.74 100.118ZM537.543 94.4676L551.123 5.98756L548.158 5.53244L534.578 94.0124L537.543 94.4676ZM551.079 5.33675L549.679 0.576745L546.801 1.42324L548.201 6.18325L551.079 5.33675ZM616.107 73.24L615.937 71.7497L612.504 72.1431L615.135 74.3823L616.107 73.24ZM640.047 76.74H641.547V73.9497L639.22 75.4888L640.047 76.74ZM640.047 99.42L640.379 100.883L641.547 100.618V99.42H640.047ZM614.007 78L615.344 77.32L612.507 78H614.007ZM614.007 94.24H612.507V94.8988L612.992 95.3445L614.007 94.24ZM619.187 99V100.5H623.037L620.202 97.8955L619.187 99ZM593.147 99L592.132 97.8955L589.298 100.5H593.147V99ZM598.327 94.24L599.342 95.3445L599.827 94.8988V94.24H598.327ZM598.327 5.47999H599.827V4.73708L599.236 4.28685L598.327 5.47999ZM592.447 0.999993V-0.500007H588.004L591.538 2.19314L592.447 0.999993ZM614.007 5.2V3.7H612.507V5.2H614.007ZM614.007 69.18H612.507V70.68H614.007V69.18ZM615.135 74.3823C618.534 77.275 622.568 79.7444 626.969 80.7078C631.423 81.6827 636.18 81.0956 640.875 77.9912L639.22 75.4888C635.234 78.1244 631.312 78.5873 627.611 77.7772C623.857 76.9556 620.261 74.805 617.08 72.0977L615.135 74.3823ZM638.547 76.74V99.42H641.547V76.74H638.547ZM640.047 99.42C639.716 97.9572 639.717 97.9569 639.718 97.9566C639.719 97.9565 639.72 97.9562 639.72 97.9561C639.722 97.9557 639.723 97.9555 639.724 97.9552C639.726 97.9548 639.727 97.9545 639.728 97.9544C639.729 97.9542 639.727 97.9547 639.721 97.9558C639.71 97.9579 639.687 97.9622 639.652 97.9678C639.582 97.9792 639.464 97.9959 639.302 98.0108C638.978 98.0406 638.477 98.0632 637.827 98.0215C636.529 97.9384 634.625 97.5988 632.33 96.5363C627.755 94.4184 621.462 89.3493 615.344 77.32L612.67 78.68C619.013 91.1507 625.74 96.7916 631.07 99.2587C633.727 100.489 635.997 100.91 637.635 101.015C638.452 101.068 639.11 101.041 639.577 100.998C639.81 100.977 639.996 100.951 640.131 100.929C640.199 100.918 640.253 100.908 640.295 100.9C640.316 100.896 640.333 100.893 640.347 100.89C640.354 100.888 640.36 100.887 640.366 100.886C640.368 100.885 640.371 100.885 640.373 100.884C640.374 100.884 640.376 100.884 640.376 100.883C640.378 100.883 640.379 100.883 640.047 99.42ZM612.507 78V94.24H615.507V78H612.507ZM612.992 95.3445L618.172 100.104L620.202 97.8955L615.022 93.1355L612.992 95.3445ZM619.187 97.5H593.147V100.5H619.187V97.5ZM594.162 100.104L599.342 95.3445L597.312 93.1355L592.132 97.8955L594.162 100.104ZM599.827 94.24V5.47999H596.827V94.24H599.827ZM599.236 4.28685L593.356 -0.193154L591.538 2.19314L597.418 6.67314L599.236 4.28685ZM592.447 2.49999H614.007V-0.500007H592.447V2.49999ZM614.007 2.49999C620.629 2.49999 626.943 6.1985 631.656 12.471C636.363 18.7367 639.387 27.4797 639.387 37.26H642.387C642.387 26.8803 639.181 17.4933 634.054 10.669C628.932 3.85149 621.806 -0.500007 614.007 -0.500007V2.49999ZM639.387 37.26C639.387 46.4174 636.639 54.7236 632.309 60.8989C627.972 67.0849 622.125 71.0407 615.937 71.7497L616.278 74.7302C623.53 73.8993 630.073 69.3151 634.766 62.6211C639.466 55.9164 642.387 47.0026 642.387 37.26H639.387ZM612.507 5.2V69.18H615.507V5.2H612.507ZM614.007 70.68C616.175 70.68 618.02 69.4193 619.493 67.625C620.974 65.8219 622.236 63.3036 623.265 60.3248C625.328 54.3531 626.567 46.1995 626.567 37.26H623.567C623.567 45.9605 622.357 53.7669 620.43 59.3452C619.464 62.1414 618.346 64.2956 617.175 65.7212C615.997 67.1557 614.92 67.68 614.007 67.68V70.68ZM626.567 37.26C626.567 28.2516 625.328 20.0633 623.266 14.074C622.237 11.0865 620.975 8.56357 619.494 6.75792C618.021 4.96097 616.175 3.7 614.007 3.7V6.7C614.919 6.7 615.997 7.22403 617.174 8.6602C618.345 10.0877 619.463 12.246 620.429 15.051C622.356 20.6467 623.567 28.4884 623.567 37.26H626.567ZM714.859 94.24L713.446 94.7445L713.585 95.132L713.901 95.3946L714.859 94.24ZM720.599 99V100.5H724.757L721.556 97.8454L720.599 99ZM693.159 99L692.201 97.8454L689 100.5H693.159V99ZM698.899 94.24L699.856 95.3946L700.674 94.7168L700.306 93.7207L698.899 94.24ZM681.539 47.2L682.946 46.6807L681.845 43.6978L680.243 46.4442L681.539 47.2ZM675.659 57.28L674.363 56.5242L674.159 56.8745V57.28H675.659ZM675.659 94.24H674.159V94.9662L674.728 95.4166L675.659 94.24ZM681.679 99V100.5H685.994L682.609 97.8234L681.679 99ZM654.239 99L653.281 97.8454L650.08 100.5H654.239V99ZM659.979 94.24L660.936 95.3946L661.479 94.9448V94.24H659.979ZM659.979 5.76H661.479V5.05524L660.936 4.60536L659.979 5.76ZM654.239 0.999993V-0.500007H650.08L653.281 2.15463L654.239 0.999993ZM681.399 0.999993L682.356 2.15463L685.557 -0.500007H681.399V0.999993ZM675.659 5.76L674.701 4.60536L674.159 5.05524V5.76H675.659ZM675.659 46.64H674.159V52.244L676.958 47.3893L675.659 46.64ZM697.779 8.28L699.078 9.02931L699.686 7.97532L698.78 7.16315L697.779 8.28ZM689.659 0.999993V-0.500007H685.739L688.657 2.11685L689.659 0.999993ZM712.899 0.999993L713.854 2.15683L717.072 -0.500007H712.899V0.999993ZM704.079 8.28L703.124 7.12317L702.916 7.29493L702.781 7.52845L704.079 8.28ZM691.759 29.56L690.461 28.8084L690.112 29.41L690.346 30.0645L691.759 29.56ZM713.901 95.3946L719.641 100.155L721.556 97.8454L715.816 93.0854L713.901 95.3946ZM720.599 97.5H693.159V100.5H720.599V97.5ZM694.116 100.155L699.856 95.3946L697.941 93.0854L692.201 97.8454L694.116 100.155ZM700.306 93.7207L682.946 46.6807L680.131 47.7193L697.492 94.7593L700.306 93.7207ZM680.243 46.4442L674.363 56.5242L676.954 58.0358L682.834 47.9558L680.243 46.4442ZM674.159 57.28V94.24H677.159V57.28H674.159ZM674.728 95.4166L680.748 100.177L682.609 97.8234L676.589 93.0634L674.728 95.4166ZM681.679 97.5H654.239V100.5H681.679V97.5ZM655.196 100.155L660.936 95.3946L659.021 93.0854L653.281 97.8454L655.196 100.155ZM661.479 94.24V5.76H658.479V94.24H661.479ZM660.936 4.60536L655.196 -0.154643L653.281 2.15463L659.021 6.91463L660.936 4.60536ZM654.239 2.49999H681.399V-0.500007H654.239V2.49999ZM680.441 -0.154643L674.701 4.60536L676.616 6.91463L682.356 2.15463L680.441 -0.154643ZM674.159 5.76V46.64H677.159V5.76H674.159ZM676.958 47.3893L699.078 9.02931L696.479 7.53069L674.359 45.8907L676.958 47.3893ZM698.78 7.16315L690.66 -0.11686L688.657 2.11685L696.777 9.39685L698.78 7.16315ZM689.659 2.49999H712.899V-0.500007H689.659V2.49999ZM711.944 -0.156841L703.124 7.12317L705.034 9.43683L713.854 2.15683L711.944 -0.156841ZM702.781 7.52845L690.461 28.8084L693.057 30.3116L705.377 9.03155L702.781 7.52845ZM690.346 30.0645L713.446 94.7445L716.271 93.7355L693.171 29.0555L690.346 30.0645ZM734.482 5.76H735.982V5.06634L735.453 4.61709L734.482 5.76ZM728.882 0.999993V-0.500007H724.801L727.91 2.1429L728.882 0.999993ZM765.702 0.999993H767.202V-0.500007H765.702V0.999993ZM765.702 21.44L764.334 22.0555L767.202 21.44H765.702ZM759.402 7.43999L760.77 6.82445L760.372 5.93999H759.402V7.43999ZM750.162 7.43999V5.93999H748.662V7.43999H750.162ZM750.162 45.66H748.662V47.16H750.162V45.66ZM753.382 45.66V47.16H754.354L754.751 46.2719L753.382 45.66ZM759.262 32.5H760.762L757.892 31.8881L759.262 32.5ZM759.262 64.98L757.892 65.5906L760.762 64.98H759.262ZM753.522 52.1L754.892 51.4894L754.495 50.6H753.522V52.1ZM750.162 52.1V50.6H748.662V52.1H750.162ZM750.162 92.56H748.662V94.06H750.162V92.56ZM759.402 92.56V94.06H760.372L760.77 93.1755L759.402 92.56ZM765.702 78.56H767.202L764.334 77.9445L765.702 78.56ZM765.702 99V100.5H767.202V99H765.702ZM728.882 99L727.91 97.8571L724.801 100.5H728.882V99ZM734.482 94.24L735.453 95.3829L735.982 94.9337V94.24H734.482ZM735.453 4.61709L729.853 -0.142915L727.91 2.1429L733.51 6.90291L735.453 4.61709ZM728.882 2.49999H765.702V-0.500007H728.882V2.49999ZM764.202 0.999993V21.44H767.202V0.999993H764.202ZM767.07 20.8245L760.77 6.82445L758.034 8.05554L764.334 22.0555L767.07 20.8245ZM759.402 5.93999H750.162V8.93999H759.402V5.93999ZM748.662 7.43999V45.66H751.662V7.43999H748.662ZM750.162 47.16H753.382V44.16H750.162V47.16ZM754.751 46.2719L760.631 33.1119L757.892 31.8881L752.012 45.0481L754.751 46.2719ZM757.762 32.5V64.98H760.762V32.5H757.762ZM760.632 64.3694L754.892 51.4894L752.152 52.7106L757.892 65.5906L760.632 64.3694ZM753.522 50.6H750.162V53.6H753.522V50.6ZM748.662 52.1V92.56H751.662V52.1H748.662ZM750.162 94.06H759.402V91.06H750.162V94.06ZM760.77 93.1755L767.07 79.1755L764.334 77.9445L758.034 91.9445L760.77 93.1755ZM764.202 78.56V99H767.202V78.56H764.202ZM765.702 97.5H728.882V100.5H765.702V97.5ZM729.853 100.143L735.453 95.3829L733.51 93.0971L727.91 97.8571L729.853 100.143ZM735.982 94.24V5.76H732.982V94.24H735.982ZM778.062 21.44H776.562L779.43 22.0555L778.062 21.44ZM778.062 0.999993V-0.500007H776.562V0.999993H778.062ZM824.262 0.999993H825.762V-0.500007H824.262V0.999993ZM824.262 21.44L822.894 22.0555L825.762 21.44H824.262ZM817.962 7.43999L819.33 6.82445L818.932 5.93999H817.962V7.43999ZM809.002 7.43999V5.93999H807.502V7.43999H809.002ZM809.002 94.24H807.502V94.9107L808.002 95.3579L809.002 94.24ZM814.322 99V100.5H818.248L815.322 97.8821L814.322 99ZM788.142 99L787.127 97.8955L784.293 100.5H788.142V99ZM793.322 94.24L794.337 95.3445L794.822 94.8988V94.24H793.322ZM793.322 7.43999H794.822V5.93999H793.322V7.43999ZM784.362 7.43999V5.93999H783.392L782.994 6.82445L784.362 7.43999ZM779.562 21.44V0.999993H776.562V21.44H779.562ZM778.062 2.49999H824.262V-0.500007H778.062V2.49999ZM822.762 0.999993V21.44H825.762V0.999993H822.762ZM825.63 20.8245L819.33 6.82445L816.594 8.05554L822.894 22.0555L825.63 20.8245ZM817.962 5.93999H809.002V8.93999H817.962V5.93999ZM807.502 7.43999V94.24H810.502V7.43999H807.502ZM808.002 95.3579L813.322 100.118L815.322 97.8821L810.002 93.1221L808.002 95.3579ZM814.322 97.5H788.142V100.5H814.322V97.5ZM789.157 100.104L794.337 95.3445L792.307 93.1355L787.127 97.8955L789.157 100.104ZM794.822 94.24V7.43999H791.822V94.24H794.822ZM793.322 5.93999H784.362V8.93999H793.322V5.93999ZM782.994 6.82445L776.694 20.8245L779.43 22.0555L785.73 8.05554L782.994 6.82445ZM858.299 94.24H856.799V94.9448L857.341 95.3946L858.299 94.24ZM864.039 99V100.5H868.197L864.996 97.8454L864.039 99ZM836.879 99L835.921 97.8454L832.72 100.5H836.879V99ZM842.619 94.24L843.576 95.3946L844.119 94.9448V94.24H842.619ZM842.619 5.76H844.119V5.05524L843.576 4.60536L842.619 5.76ZM836.879 0.999993V-0.500007H832.72L835.921 2.15463L836.879 0.999993ZM864.039 0.999993L864.996 2.15463L868.197 -0.500007H864.039V0.999993ZM858.299 5.76L857.341 4.60536L856.799 5.05524V5.76H858.299ZM857.341 95.3946L863.081 100.155L864.996 97.8454L859.256 93.0854L857.341 95.3946ZM864.039 97.5H836.879V100.5H864.039V97.5ZM837.836 100.155L843.576 95.3946L841.661 93.0854L835.921 97.8454L837.836 100.155ZM844.119 94.24V5.76H841.119V94.24H844.119ZM843.576 4.60536L837.836 -0.154643L835.921 2.15463L841.661 6.91463L843.576 4.60536ZM836.879 2.49999H864.039V-0.500007H836.879V2.49999ZM863.081 -0.154643L857.341 4.60536L859.256 6.91463L864.996 2.15463L863.081 -0.154643ZM856.799 5.76V94.24H859.799V5.76H856.799ZM924.375 8.28H925.875V7.61024L925.377 7.16315L924.375 8.28ZM916.255 0.999993V-0.500007H912.335L915.254 2.11685L916.255 0.999993ZM938.935 0.999993L939.937 2.11685L942.855 -0.500007H938.935V0.999993ZM930.815 8.28L929.814 7.16315L929.315 7.61024V8.28H930.815ZM930.815 99.42L929.487 100.118L932.315 99.42H930.815ZM891.755 25.08L893.083 24.3823L890.255 25.08H891.755ZM891.755 91.72H890.255V92.3898L890.754 92.8369L891.755 91.72ZM899.875 99V100.5H903.795L900.877 97.8831L899.875 99ZM877.195 99L876.194 97.8831L873.275 100.5H877.195V99ZM885.315 91.72L886.317 92.8369L886.815 92.3898V91.72H885.315ZM885.315 16.12H886.815V15.6871L886.585 15.3208L885.315 16.12ZM875.795 0.999993V-0.500007H873.078L874.526 1.79921L875.795 0.999993ZM896.235 0.999993L897.556 0.288422L897.131 -0.500007H896.235V0.999993ZM924.375 53.22L923.055 53.9316L925.875 53.22H924.375ZM925.377 7.16315L917.257 -0.11686L915.254 2.11685L923.374 9.39685L925.377 7.16315ZM916.255 2.49999H938.935V-0.500007H916.255V2.49999ZM937.934 -0.11686L929.814 7.16315L931.817 9.39685L939.937 2.11685L937.934 -0.11686ZM929.315 8.28V99.42H932.315V8.28H929.315ZM932.143 98.7223L893.083 24.3823L890.427 25.7777L929.487 100.118L932.143 98.7223ZM890.255 25.08V91.72H893.255V25.08H890.255ZM890.754 92.8369L898.874 100.117L900.877 97.8831L892.757 90.6031L890.754 92.8369ZM899.875 97.5H877.195V100.5H899.875V97.5ZM878.197 100.117L886.317 92.8369L884.314 90.6031L876.194 97.8831L878.197 100.117ZM886.815 91.72V16.12H883.815V91.72H886.815ZM886.585 15.3208L877.065 0.200773L874.526 1.79921L884.046 16.9192L886.585 15.3208ZM875.795 2.49999H896.235V-0.500007H875.795V2.49999ZM894.915 1.71157L923.055 53.9316L925.696 52.5084L897.556 0.288422L894.915 1.71157ZM925.875 53.22V8.28H922.875V53.22H925.875ZM1055.2 57.42H1056.7V55.92H1055.2V57.42ZM1055.2 67.92L1054.73 69.3452L1056.7 69.9909V67.92H1055.2ZM1046.24 64.98L1046.71 63.5548L1045.26 63.0817L1044.81 64.5288L1046.24 64.98ZM1046.94 37.96V39.46H1048.88L1048.39 37.5832L1046.94 37.96ZM1038.26 37.96L1036.76 38.024L1036.82 39.46H1038.26V37.96ZM1030.98 63.58L1032.24 64.3934L1033.73 62.08H1030.98V63.58ZM1018.52 63.58H1017.02V65.08H1018.52V63.58ZM1018.52 57.42V55.92H1017.02V57.42H1018.52ZM1053.7 57.42V67.92H1056.7V57.42H1053.7ZM1055.67 66.4948L1046.71 63.5548L1045.77 66.4052L1054.73 69.3452L1055.67 66.4948ZM1044.81 64.5288C1038.43 84.7429 1019.85 97.92 998.638 97.92V100.92C1021.11 100.92 1040.88 86.9371 1047.67 65.4312L1044.81 64.5288ZM998.638 97.92C971.631 97.92 950.998 76.2168 950.998 50.14H947.998C947.998 77.8232 969.924 100.92 998.638 100.92V97.92ZM950.998 50.14C950.998 23.4022 973.132 2.08 998.918 2.08V-0.920001C971.503 -0.920001 947.998 21.7178 947.998 50.14H950.998ZM998.918 2.08C1020.91 2.08 1039.92 16.8708 1045.49 38.3368L1048.39 37.5832C1042.48 14.8092 1022.29 -0.920001 998.918 -0.920001V2.08ZM1046.94 36.46H1038.26V39.46H1046.94V36.46ZM1039.76 37.896C1039.39 29.3545 1036.17 22.2144 1030.81 17.2113C1025.46 12.2118 1018.08 9.44 1009.56 9.44V12.44C1017.42 12.44 1024.04 14.9882 1028.76 19.4037C1033.49 23.8156 1036.42 30.1855 1036.76 38.024L1039.76 37.896ZM1009.56 9.44C996.541 9.44 983.718 15.8979 974.177 25.4738C964.637 35.0498 958.218 47.9068 958.218 60.92H961.218C961.218 48.8732 967.188 36.7402 976.303 27.5912C985.418 18.442 997.514 12.44 1009.56 12.44V9.44ZM958.218 60.92C958.218 78.3936 970.634 90.98 987.998 90.98V87.98C972.321 87.98 961.218 76.7664 961.218 60.92H958.218ZM987.998 90.98C1005.7 90.98 1022.09 80.1121 1032.24 64.3934L1029.72 62.7665C1019.98 77.8479 1004.45 87.98 987.998 87.98V90.98ZM1030.98 62.08H1018.52V65.08H1030.98V62.08ZM1020.02 63.58V57.42H1017.02V63.58H1020.02ZM1018.52 58.92H1055.2V55.92H1018.52V58.92Z" fill="#111315"/>
</svg>
