<svg width="462" height="103" viewBox="0 0 462 103" fill="none" xmlns="http://www.w3.org/2000/svg">
<path d="M24.58 73.24C31.16 78.84 39.84 82.48 48.52 76.74V99.42C48.52 99.42 34.94 102.5 22.48 78V94.24L27.66 99H1.62L6.8 94.24V5.47999L0.92 0.999993H22.48C36.9 0.999993 49.36 17.1 49.36 37.26C49.36 56.16 38.02 71.7 24.58 73.24ZM22.48 5.2V69.18C28.64 69.18 33.54 54.9 33.54 37.26C33.54 19.48 28.64 5.2 22.48 5.2ZM68.038 5.76L62.438 0.999993H99.258V21.44L92.958 7.43999H83.718V45.66H86.938L92.818 32.5V64.98L87.078 52.1H83.718V92.56H92.958L99.258 78.56V99H62.438L68.038 94.24V5.76ZM163.581 94.24L169.181 99H142.161L147.621 94.24L136.561 64.56L125.501 91.72L133.341 99H109.961L118.781 91.72L133.341 55.74L114.721 5.76L108.981 0.999993H136.421L130.681 5.76L141.881 35.86L152.941 8.28L144.821 0.999993H168.481L159.661 8.28L144.961 44.4L163.581 94.24ZM223.113 99.42C195.253 99.42 173.553 77.3 173.553 50.14C173.553 22.84 195.813 0.579999 223.113 0.579999C250.833 0.579999 272.533 22.98 272.533 49.72C272.533 77.02 250.553 99.42 223.113 99.42ZM212.473 89.34C237.533 89.34 262.453 64.7 262.453 39.36C262.453 22.42 250.693 10.52 233.753 10.52C208.833 10.52 183.773 35.44 183.773 60.64C183.773 77.72 195.533 89.34 212.473 89.34ZM306.83 94.24L312.57 99H285.41L291.15 94.24V5.76L285.41 0.999993H312.57L306.83 5.76V94.24ZM357.643 0.999993H379.763L371.923 8.28V79.68C371.923 90.74 363.103 99.42 351.483 99.42C340.143 99.42 331.043 90.74 331.043 79.82V5.76L325.723 0.999993H352.043L346.723 5.76V79.4C346.723 84.58 350.923 88.78 356.103 88.78C361.143 88.78 365.483 85.56 365.483 79.26V8.28L357.643 0.999993ZM399.252 27.04V94.24L404.572 99H387.492L392.812 94.24V5.47999L387.212 0.999993H407.932L425.712 56.02L440.832 0.999993H461.832L455.672 5.47999V94.24L461.552 99H434.252L439.992 94.24V29.7L421.512 99.56L399.252 27.04Z" fill="#111315"/>
<path d="M24.58 73.24L24.4092 71.7497L20.9767 72.1431L23.6078 74.3823L24.58 73.24ZM48.52 76.74H50.02V73.9497L47.6926 75.4888L48.52 76.74ZM48.52 99.42L48.8518 100.883L50.02 100.618V99.42H48.52ZM22.48 78L23.817 77.32L20.98 78H22.48ZM22.48 94.24H20.98V94.8988L21.4651 95.3445L22.48 94.24ZM27.66 99V100.5H31.5092L28.6749 97.8955L27.66 99ZM1.62 99L0.605062 97.8955L-2.22924 100.5H1.62V99ZM6.8 94.24L7.81494 95.3445L8.3 94.8988V94.24H6.8ZM6.8 5.47999H8.3V4.73708L7.70907 4.28685L6.8 5.47999ZM0.92 0.999993V-0.500007H-3.52382L0.0109353 2.19314L0.92 0.999993ZM22.48 5.2V3.7H20.98V5.2H22.48ZM22.48 69.18H20.98V70.68H22.48V69.18ZM23.6078 74.3823C27.0067 77.275 31.0402 79.7444 35.4418 80.7078C39.8956 81.6827 44.653 81.0956 49.3474 77.9912L47.6926 75.4888C43.707 78.1244 39.7844 78.5873 36.0832 77.7772C32.3298 76.9556 28.7333 74.805 25.5522 72.0977L23.6078 74.3823ZM47.02 76.74V99.42H50.02V76.74H47.02ZM48.52 99.42C48.1882 97.9572 48.1895 97.9569 48.1908 97.9566C48.1912 97.9565 48.1924 97.9562 48.1931 97.9561C48.1945 97.9557 48.1957 97.9555 48.1968 97.9552C48.1988 97.9548 48.2 97.9545 48.2005 97.9544C48.2014 97.9542 48.1992 97.9547 48.1938 97.9558C48.1831 97.9579 48.16 97.9622 48.125 97.9678C48.0549 97.9792 47.937 97.9959 47.7749 98.0108C47.4506 98.0406 46.9496 98.0632 46.2994 98.0215C45.002 97.9384 43.098 97.5988 40.8026 96.5363C36.2274 94.4184 29.9347 89.3493 23.817 77.32L21.143 78.68C27.4853 91.1507 34.2126 96.7916 39.5424 99.2587C42.1995 100.489 44.4693 100.91 46.1075 101.015C46.9251 101.068 47.5824 101.041 48.0494 100.998C48.283 100.977 48.469 100.951 48.6039 100.929C48.6714 100.918 48.7261 100.908 48.7675 100.9C48.7882 100.896 48.8057 100.893 48.8197 100.89C48.8268 100.888 48.833 100.887 48.8383 100.886C48.841 100.885 48.8434 100.885 48.8457 100.884C48.8468 100.884 48.8483 100.884 48.8489 100.883C48.8504 100.883 48.8518 100.883 48.52 99.42ZM20.98 78V94.24H23.98V78H20.98ZM21.4651 95.3445L26.6451 100.104L28.6749 97.8955L23.4949 93.1355L21.4651 95.3445ZM27.66 97.5H1.62V100.5H27.66V97.5ZM2.63494 100.104L7.81494 95.3445L5.78506 93.1355L0.605062 97.8955L2.63494 100.104ZM8.3 94.24V5.47999H5.3V94.24H8.3ZM7.70907 4.28685L1.82906 -0.193154L0.0109353 2.19314L5.89093 6.67314L7.70907 4.28685ZM0.92 2.49999H22.48V-0.500007H0.92V2.49999ZM22.48 2.49999C29.1012 2.49999 35.4155 6.1985 40.1283 12.471C44.8359 18.7367 47.86 27.4797 47.86 37.26H50.86C50.86 26.8803 47.6541 17.4933 42.5267 10.669C37.4045 3.85149 30.2788 -0.500007 22.48 -0.500007V2.49999ZM47.86 37.26C47.86 46.4174 45.1112 54.7236 40.7818 60.8989C36.4449 67.0849 30.5977 71.0407 24.4092 71.7497L24.7508 74.7302C32.0023 73.8993 38.5452 69.3151 43.2382 62.6211C47.9388 55.9164 50.86 47.0026 50.86 37.26H47.86ZM20.98 5.2V69.18H23.98V5.2H20.98ZM22.48 70.68C24.6478 70.68 26.4928 69.4193 27.9661 67.625C29.4468 65.8219 30.7088 63.3036 31.7378 60.3248C33.8007 54.3531 35.04 46.1995 35.04 37.26H32.04C32.04 45.9605 30.8293 53.7669 28.9022 59.3452C27.9362 62.1414 26.8182 64.2956 25.6476 65.7212C24.4697 67.1557 23.3922 67.68 22.48 67.68V70.68ZM35.04 37.26C35.04 28.2516 33.801 20.0633 31.7382 14.074C30.7093 11.0865 29.4474 8.56357 27.9668 6.75792C26.4932 4.96097 24.6481 3.7 22.48 3.7V6.7C23.3919 6.7 24.4693 7.22403 25.647 8.6602C26.8176 10.0877 27.9357 12.246 28.9018 15.051C30.829 20.6467 32.04 28.4884 32.04 37.26H35.04ZM68.038 5.76H69.538V5.06634L69.0094 4.61709L68.038 5.76ZM62.438 0.999993V-0.500007H58.3572L61.4665 2.1429L62.438 0.999993ZM99.258 0.999993H100.758V-0.500007H99.258V0.999993ZM99.258 21.44L97.8901 22.0555L100.758 21.44H99.258ZM92.958 7.43999L94.3259 6.82445L93.9278 5.93999H92.958V7.43999ZM83.718 7.43999V5.93999H82.218V7.43999H83.718ZM83.718 45.66H82.218V47.16H83.718V45.66ZM86.938 45.66V47.16H87.9107L88.3075 46.2719L86.938 45.66ZM92.818 32.5H94.318L91.4485 31.8881L92.818 32.5ZM92.818 64.98L91.4479 65.5906L94.318 64.98H92.818ZM87.078 52.1L88.4481 51.4894L88.0517 50.6H87.078V52.1ZM83.718 52.1V50.6H82.218V52.1H83.718ZM83.718 92.56H82.218V94.06H83.718V92.56ZM92.958 92.56V94.06H93.9278L94.3259 93.1755L92.958 92.56ZM99.258 78.56H100.758L97.8901 77.9445L99.258 78.56ZM99.258 99V100.5H100.758V99H99.258ZM62.438 99L61.4665 97.8571L58.3572 100.5H62.438V99ZM68.038 94.24L69.0094 95.3829L69.538 94.9337V94.24H68.038ZM69.0094 4.61709L63.4094 -0.142915L61.4665 2.1429L67.0665 6.90291L69.0094 4.61709ZM62.438 2.49999H99.258V-0.500007H62.438V2.49999ZM97.758 0.999993V21.44H100.758V0.999993H97.758ZM100.626 20.8245L94.3259 6.82445L91.5901 8.05554L97.8901 22.0555L100.626 20.8245ZM92.958 5.93999H83.718V8.93999H92.958V5.93999ZM82.218 7.43999V45.66H85.218V7.43999H82.218ZM83.718 47.16H86.938V44.16H83.718V47.16ZM88.3075 46.2719L94.1875 33.1119L91.4485 31.8881L85.5685 45.0481L88.3075 46.2719ZM91.318 32.5V64.98H94.318V32.5H91.318ZM94.1881 64.3694L88.4481 51.4894L85.7079 52.7106L91.4479 65.5906L94.1881 64.3694ZM87.078 50.6H83.718V53.6H87.078V50.6ZM82.218 52.1V92.56H85.218V52.1H82.218ZM83.718 94.06H92.958V91.06H83.718V94.06ZM94.3259 93.1755L100.626 79.1755L97.8901 77.9445L91.5901 91.9445L94.3259 93.1755ZM97.758 78.56V99H100.758V78.56H97.758ZM99.258 97.5H62.438V100.5H99.258V97.5ZM63.4094 100.143L69.0094 95.3829L67.0665 93.0971L61.4665 97.8571L63.4094 100.143ZM69.538 94.24V5.76H66.538V94.24H69.538ZM163.581 94.24L162.176 94.765L162.313 95.1303L162.61 95.3829L163.581 94.24ZM169.181 99V100.5H173.262L170.153 97.8571L169.181 99ZM142.161 99L141.176 97.8693L138.158 100.5H142.161V99ZM147.621 94.24L148.607 95.3707L149.389 94.6887L149.027 93.7162L147.621 94.24ZM136.561 64.56L137.967 64.0362L136.623 60.4306L135.172 63.9943L136.561 64.56ZM125.501 91.72L124.112 91.1543L123.721 92.114L124.481 92.8192L125.501 91.72ZM133.341 99V100.5H137.161L134.362 97.9008L133.341 99ZM109.961 99L109.007 97.8432L105.788 100.5H109.961V99ZM118.781 91.72L119.736 92.8768L120.029 92.6349L120.172 92.2827L118.781 91.72ZM133.341 55.74L134.732 56.3027L134.95 55.7625L134.747 55.2163L133.341 55.74ZM114.721 5.76L116.127 5.23634L115.987 4.86102L115.679 4.60536L114.721 5.76ZM108.981 0.999993V-0.500007H104.823L108.024 2.15463L108.981 0.999993ZM136.421 0.999993L137.379 2.15463L140.58 -0.500007H136.421V0.999993ZM130.681 5.76L129.724 4.60536L128.904 5.2851L129.276 6.2831L130.681 5.76ZM141.881 35.86L140.476 36.3831L141.829 40.0206L143.274 36.4183L141.881 35.86ZM152.941 8.28L154.334 8.8383L154.724 7.86393L153.943 7.16315L152.941 8.28ZM144.821 0.999993V-0.500007H140.901L143.82 2.11685L144.821 0.999993ZM168.481 0.999993L169.436 2.15683L172.655 -0.500007H168.481V0.999993ZM159.661 8.28L158.707 7.12317L158.415 7.36406L158.272 7.71457L159.661 8.28ZM144.961 44.4L143.572 43.8346L143.351 44.3767L143.556 44.925L144.961 44.4ZM162.61 95.3829L168.21 100.143L170.153 97.8571L164.553 93.0971L162.61 95.3829ZM169.181 97.5H142.161V100.5H169.181V97.5ZM143.147 100.131L148.607 95.3707L146.636 93.1093L141.176 97.8693L143.147 100.131ZM149.027 93.7162L137.967 64.0362L135.156 65.0838L146.216 94.7638L149.027 93.7162ZM135.172 63.9943L124.112 91.1543L126.891 92.2857L137.951 65.1257L135.172 63.9943ZM124.481 92.8192L132.321 100.099L134.362 97.9008L126.522 90.6208L124.481 92.8192ZM133.341 97.5H109.961V100.5H133.341V97.5ZM110.916 100.157L119.736 92.8768L117.827 90.5632L109.007 97.8432L110.916 100.157ZM120.172 92.2827L134.732 56.3027L131.951 55.1773L117.391 91.1573L120.172 92.2827ZM134.747 55.2163L116.127 5.23634L113.316 6.28366L131.936 56.2637L134.747 55.2163ZM115.679 4.60536L109.939 -0.154643L108.024 2.15463L113.764 6.91463L115.679 4.60536ZM108.981 2.49999H136.421V-0.500007H108.981V2.49999ZM135.464 -0.154643L129.724 4.60536L131.639 6.91463L137.379 2.15463L135.464 -0.154643ZM129.276 6.2831L140.476 36.3831L143.287 35.3369L132.087 5.2369L129.276 6.2831ZM143.274 36.4183L154.334 8.8383L151.549 7.72169L140.489 35.3017L143.274 36.4183ZM153.943 7.16315L145.823 -0.11686L143.82 2.11685L151.94 9.39685L153.943 7.16315ZM144.821 2.49999H168.481V-0.500007H144.821V2.49999ZM167.527 -0.15684L158.707 7.12317L160.616 9.43683L169.436 2.15683L167.527 -0.15684ZM158.272 7.71457L143.572 43.8346L146.351 44.9654L161.051 8.84543L158.272 7.71457ZM143.556 44.925L162.176 94.765L164.987 93.715L146.367 43.875L143.556 44.925ZM223.113 97.92C196.084 97.92 175.053 76.4743 175.053 50.14H172.053C172.053 78.1256 194.422 100.92 223.113 100.92V97.92ZM175.053 50.14C175.053 23.6684 196.642 2.08 223.113 2.08V-0.920001C194.985 -0.920001 172.053 22.0116 172.053 50.14H175.053ZM223.113 2.08C249.996 2.08 271.033 23.8001 271.033 49.72H274.033C274.033 22.1599 251.67 -0.920001 223.113 -0.920001V2.08ZM271.033 49.72C271.033 76.2054 249.711 97.92 223.113 97.92V100.92C251.395 100.92 274.033 77.8346 274.033 49.72H271.033ZM212.473 90.84C225.484 90.84 238.341 84.4573 247.919 74.9151C257.498 65.3722 263.953 52.5135 263.953 39.36H260.953C260.953 51.5465 254.948 63.6778 245.802 72.7899C236.655 81.9027 224.522 87.84 212.473 87.84V90.84ZM263.953 39.36C263.953 30.5346 260.884 22.9316 255.52 17.5305C250.155 12.1285 242.585 9.02 233.753 9.02V12.02C241.862 12.02 248.641 14.8615 253.391 19.6445C258.142 24.4284 260.953 31.2454 260.953 39.36H263.953ZM233.753 9.02C220.806 9.02 207.948 15.4784 198.357 25.0693C188.766 34.6611 182.273 47.5536 182.273 60.64H185.273C185.273 48.5264 191.311 36.3589 200.479 27.1907C209.648 18.0216 221.781 12.02 233.753 12.02V9.02ZM182.273 60.64C182.273 69.5337 185.341 77.1057 190.712 82.4575C196.081 87.8085 203.652 90.84 212.473 90.84V87.84C204.354 87.84 197.575 85.0615 192.829 80.3325C188.085 75.6042 185.273 68.8263 185.273 60.64H182.273ZM306.83 94.24H305.33V94.9448L305.872 95.3946L306.83 94.24ZM312.57 99V100.5H316.729L313.527 97.8454L312.57 99ZM285.41 99L284.452 97.8454L281.251 100.5H285.41V99ZM291.15 94.24L292.107 95.3946L292.65 94.9448V94.24H291.15ZM291.15 5.76H292.65V5.05524L292.107 4.60536L291.15 5.76ZM285.41 0.999993V-0.500007H281.251L284.452 2.15463L285.41 0.999993ZM312.57 0.999993L313.527 2.15463L316.729 -0.500007H312.57V0.999993ZM306.83 5.76L305.872 4.60536L305.33 5.05524V5.76H306.83ZM305.872 95.3946L311.612 100.155L313.527 97.8454L307.787 93.0854L305.872 95.3946ZM312.57 97.5H285.41V100.5H312.57V97.5ZM286.367 100.155L292.107 95.3946L290.192 93.0854L284.452 97.8454L286.367 100.155ZM292.65 94.24V5.76H289.65V94.24H292.65ZM292.107 4.60536L286.367 -0.154643L284.452 2.15463L290.192 6.91463L292.107 4.60536ZM285.41 2.49999H312.57V-0.500007H285.41V2.49999ZM311.612 -0.154643L305.872 4.60536L307.787 6.91463L313.527 2.15463L311.612 -0.154643ZM305.33 5.76V94.24H308.33V5.76H305.33ZM357.643 0.999993V-0.500007H353.823L356.623 2.09918L357.643 0.999993ZM379.763 0.999993L380.784 2.09918L383.583 -0.500007H379.763V0.999993ZM371.923 8.28L370.903 7.18081L370.423 7.6259V8.28H371.923ZM331.043 5.76H332.543V5.08933L332.043 4.64214L331.043 5.76ZM325.723 0.999993V-0.500007H321.797L324.723 2.11786L325.723 0.999993ZM352.043 0.999993L353.043 2.11786L355.969 -0.500007H352.043V0.999993ZM346.723 5.76L345.723 4.64214L345.223 5.08933V5.76H346.723ZM365.483 8.28H366.983V7.6259L366.504 7.18081L365.483 8.28ZM357.643 2.49999H379.763V-0.500007H357.643V2.49999ZM378.743 -0.0991964L370.903 7.18081L372.944 9.37919L380.784 2.09918L378.743 -0.0991964ZM370.423 8.28V79.68H373.423V8.28H370.423ZM370.423 79.68C370.423 89.8707 362.316 97.92 351.483 97.92V100.92C363.89 100.92 373.423 91.6093 373.423 79.68H370.423ZM351.483 97.92C340.909 97.92 332.543 89.8506 332.543 79.82H329.543C329.543 91.6294 339.377 100.92 351.483 100.92V97.92ZM332.543 79.82V5.76H329.543V79.82H332.543ZM332.043 4.64214L326.723 -0.117868L324.723 2.11786L330.043 6.87786L332.043 4.64214ZM325.723 2.49999H352.043V-0.500007H325.723V2.49999ZM351.043 -0.117868L345.723 4.64214L347.723 6.87786L353.043 2.11786L351.043 -0.117868ZM345.223 5.76V79.4H348.223V5.76H345.223ZM345.223 79.4C345.223 85.4084 350.095 90.28 356.103 90.28V87.28C351.752 87.28 348.223 83.7516 348.223 79.4H345.223ZM356.103 90.28C358.936 90.28 361.667 89.3736 363.704 87.4817C365.761 85.572 366.983 82.7754 366.983 79.26H363.983C363.983 82.0446 363.036 84.008 361.663 85.2833C360.27 86.5764 358.311 87.28 356.103 87.28V90.28ZM366.983 79.26V8.28H363.983V79.26H366.983ZM366.504 7.18081L358.664 -0.0991964L356.623 2.09918L364.463 9.37919L366.504 7.18081ZM399.252 27.04L400.686 26.5998L397.752 27.04H399.252ZM399.252 94.24H397.752V94.9107L398.252 95.3579L399.252 94.24ZM404.572 99V100.5H408.498L405.572 97.8821L404.572 99ZM387.492 99L386.492 97.8821L383.566 100.5H387.492V99ZM392.812 94.24L393.812 95.3579L394.312 94.9107V94.24H392.812ZM392.812 5.47999H394.312V4.75906L393.749 4.30869L392.812 5.47999ZM387.212 0.999993V-0.500007H382.936L386.275 2.1713L387.212 0.999993ZM407.932 0.999993L409.359 0.538747L409.023 -0.500007H407.932V0.999993ZM425.712 56.02L424.284 56.4812L425.828 61.2577L427.158 56.4175L425.712 56.02ZM440.832 0.999993V-0.500007H439.688L439.385 0.602515L440.832 0.999993ZM461.832 0.999993L462.714 2.2131L466.445 -0.500007H461.832V0.999993ZM455.672 5.47999L454.789 4.26689L454.172 4.71616V5.47999H455.672ZM455.672 94.24H454.172V94.9556L454.728 95.4059L455.672 94.24ZM461.552 99V100.5H465.789L462.496 97.8341L461.552 99ZM434.252 99L433.294 97.8454L430.093 100.5H434.252V99ZM439.992 94.24L440.949 95.3946L441.492 94.9448V94.24H439.992ZM439.992 29.7H441.492L438.542 29.3164L439.992 29.7ZM421.512 99.56L420.078 100L421.619 105.021L422.962 99.9436L421.512 99.56ZM397.752 27.04V94.24H400.752V27.04H397.752ZM398.252 95.3579L403.572 100.118L405.572 97.8821L400.252 93.1221L398.252 95.3579ZM404.572 97.5H387.492V100.5H404.572V97.5ZM388.492 100.118L393.812 95.3579L391.812 93.1221L386.492 97.8821L388.492 100.118ZM394.312 94.24V5.47999H391.312V94.24H394.312ZM393.749 4.30869L388.149 -0.171309L386.275 2.1713L391.875 6.6513L393.749 4.30869ZM387.212 2.49999H407.932V-0.500007H387.212V2.49999ZM406.504 1.46124L424.284 56.4812L427.139 55.5588L409.359 0.538747L406.504 1.46124ZM427.158 56.4175L442.278 1.39747L439.385 0.602515L424.265 55.6225L427.158 56.4175ZM440.832 2.49999H461.832V-0.500007H440.832V2.49999ZM460.949 -0.213111L454.789 4.26689L456.554 6.6931L462.714 2.2131L460.949 -0.213111ZM454.172 5.47999V94.24H457.172V5.47999H454.172ZM454.728 95.4059L460.608 100.166L462.496 97.8341L456.616 93.0741L454.728 95.4059ZM461.552 97.5H434.252V100.5H461.552V97.5ZM435.209 100.155L440.949 95.3946L439.034 93.0854L433.294 97.8454L435.209 100.155ZM441.492 94.24V29.7H438.492V94.24H441.492ZM438.542 29.3164L420.062 99.1764L422.962 99.9436L441.442 30.0836L438.542 29.3164ZM422.946 99.1198L400.686 26.5998L397.818 27.4802L420.078 100L422.946 99.1198Z" fill="#111315"/>
</svg>
