<svg width="24" height="24" viewBox="0 0 24 24" fill="none" xmlns="http://www.w3.org/2000/svg">
<path d="M4.20876 13.005L17.3788 13.005L14.4988 15.885C14.1088 16.275 14.1088 16.905 14.4988 17.295C14.6856 17.4823 14.9392 17.5875 15.2038 17.5875C15.4683 17.5875 15.7219 17.4823 15.9088 17.295L20.4988 12.705C20.8888 12.315 20.8888 11.685 20.4988 11.295L15.9088 6.70501C15.5188 6.31501 14.8888 6.31501 14.4988 6.70501C14.1088 7.09501 14.1088 7.72501 14.4988 8.11501L17.3788 11.005L4.20876 11.005C3.65876 11.005 3.20876 11.455 3.20876 12.005C3.20876 12.555 3.65876 13.005 4.20876 13.005Z" fill="black"/>
</svg>
