<svg width="146" height="47" viewBox="0 0 146 47" fill="none" xmlns="http://www.w3.org/2000/svg">
<path fill-rule="evenodd" clip-rule="evenodd" d="M23.5 44C34.8218 44 44 34.8218 44 23.5C44 12.1782 34.8218 3 23.5 3C12.1782 3 3 12.1782 3 23.5C3 34.8218 12.1782 44 23.5 44ZM23.5 47C36.4787 47 47 36.4787 47 23.5C47 10.5213 36.4787 0 23.5 0C10.5213 0 0 10.5213 0 23.5C0 36.4787 10.5213 47 23.5 47Z" fill="white"/>
<path fill-rule="evenodd" clip-rule="evenodd" d="M46 31C49.866 31 53 27.866 53 24C53 20.134 49.866 17 46 17C42.134 17 39 20.134 39 24C39 27.866 42.134 31 46 31ZM46 34C51.5228 34 56 29.5228 56 24C56 18.4772 51.5228 14 46 14C40.4772 14 36 18.4772 36 24C36 29.5228 40.4772 34 46 34Z" fill="white"/>
<path d="M143.895 31.32C143.508 31.32 143.148 31.2267 142.815 31.04C142.495 30.8533 142.241 30.6 142.055 30.28C141.868 29.96 141.775 29.6133 141.775 29.24C141.775 28.8667 141.868 28.5267 142.055 28.22C142.241 27.9 142.495 27.6467 142.815 27.46C143.148 27.2733 143.508 27.18 143.895 27.18C144.281 27.18 144.628 27.2733 144.935 27.46C145.255 27.6467 145.508 27.9 145.695 28.22C145.895 28.5267 145.995 28.8667 145.995 29.24C145.995 29.6133 145.895 29.96 145.695 30.28C145.508 30.6 145.255 30.8533 144.935 31.04C144.628 31.2267 144.281 31.32 143.895 31.32Z" fill="#FF2E00"/>
<path d="M134.184 31C134.184 29.2933 134.184 27.5733 134.184 25.84C134.184 24.0933 134.184 22.3667 134.184 20.66C134.731 20.66 135.284 20.66 135.844 20.66C136.404 20.66 136.951 20.66 137.484 20.66C137.484 20.7533 137.484 20.8467 137.484 20.94C137.484 21.0333 137.484 21.1267 137.484 21.22C137.897 20.9267 138.364 20.7067 138.884 20.56C139.404 20.4133 139.971 20.3733 140.584 20.44C140.584 20.9733 140.584 21.5133 140.584 22.06C140.584 22.6067 140.584 23.1467 140.584 23.68C139.531 23.5333 138.751 23.6267 138.244 23.96C137.737 24.28 137.484 24.8067 137.484 25.54C137.484 26.4333 137.484 27.34 137.484 28.26C137.484 29.18 137.484 30.0933 137.484 31C136.951 31 136.404 31 135.844 31C135.284 31 134.731 31 134.184 31Z" fill="white"/>
<path d="M128.682 31C128.682 30.8933 128.682 30.7933 128.682 30.7C128.682 30.5933 128.682 30.4933 128.682 30.4C128.348 30.68 127.968 30.8933 127.542 31.04C127.128 31.2 126.682 31.28 126.202 31.28C125.522 31.28 124.882 31.1533 124.282 30.9C123.682 30.6333 123.148 30.26 122.682 29.78C122.228 29.2867 121.868 28.7067 121.602 28.04C121.348 27.3733 121.222 26.6333 121.222 25.82C121.222 24.9933 121.348 24.2467 121.602 23.58C121.868 22.9133 122.228 22.3467 122.682 21.88C123.148 21.4 123.682 21.0333 124.282 20.78C124.882 20.5133 125.515 20.38 126.182 20.38C126.662 20.38 127.115 20.46 127.542 20.62C127.968 20.7667 128.348 20.9733 128.682 21.24C128.682 21.1333 128.682 21.0333 128.682 20.94C128.682 20.8467 128.682 20.7533 128.682 20.66C129.228 20.66 129.782 20.66 130.342 20.66C130.902 20.66 131.448 20.66 131.982 20.66C131.982 22.3667 131.982 24.0933 131.982 25.84C131.982 27.5733 131.982 29.2933 131.982 31C131.448 31 130.902 31 130.342 31C129.782 31 129.228 31 128.682 31ZM126.642 28.36C127.282 28.36 127.795 28.1267 128.182 27.66C128.568 27.1933 128.762 26.58 128.762 25.82C128.762 25.06 128.568 24.4533 128.182 24C127.795 23.5333 127.282 23.3 126.642 23.3C125.988 23.3 125.468 23.5267 125.082 23.98C124.708 24.4333 124.522 25.0467 124.522 25.82C124.522 26.5933 124.708 27.2133 125.082 27.68C125.468 28.1333 125.988 28.36 126.642 28.36Z" fill="white"/>
<path d="M120.189 27.8C120.189 28.6267 119.956 29.3067 119.489 29.84C119.036 30.36 118.423 30.74 117.649 30.98C116.876 31.22 116.009 31.32 115.049 31.28C114.103 31.2533 113.136 31.1 112.149 30.82C112.149 30.3133 112.149 29.7933 112.149 29.26C112.149 28.7267 112.149 28.2067 112.149 27.7C112.709 27.9533 113.269 28.1533 113.829 28.3C114.389 28.4333 114.896 28.5133 115.349 28.54C115.803 28.5667 116.169 28.5333 116.449 28.44C116.729 28.3333 116.869 28.16 116.869 27.92C116.869 27.7333 116.749 27.5867 116.509 27.48C116.283 27.3733 115.983 27.28 115.609 27.2C115.236 27.1067 114.836 27 114.409 26.88C113.996 26.7467 113.603 26.5667 113.229 26.34C112.856 26.1 112.549 25.7867 112.309 25.4C112.083 25 111.969 24.4867 111.969 23.86C111.969 23.1133 112.183 22.48 112.609 21.96C113.049 21.4267 113.636 21.0267 114.369 20.76C115.103 20.48 115.923 20.34 116.829 20.34C117.736 20.34 118.663 20.4933 119.609 20.8C119.609 21.3067 119.609 21.8267 119.609 22.36C119.609 22.8933 119.609 23.4133 119.609 23.92C118.863 23.56 118.163 23.32 117.509 23.2C116.856 23.08 116.329 23.0667 115.929 23.16C115.529 23.24 115.329 23.42 115.329 23.7C115.329 23.8867 115.443 24.0333 115.669 24.14C115.909 24.2333 116.209 24.32 116.569 24.4C116.943 24.48 117.336 24.5867 117.749 24.72C118.176 24.8533 118.569 25.04 118.929 25.28C119.303 25.5067 119.603 25.8267 119.829 26.24C120.069 26.64 120.189 27.16 120.189 27.8Z" fill="white"/>
<path d="M106.787 31C106.787 30.8933 106.787 30.7933 106.787 30.7C106.787 30.5933 106.787 30.4933 106.787 30.4C106.454 30.68 106.074 30.8933 105.647 31.04C105.234 31.2 104.787 31.28 104.307 31.28C103.627 31.28 102.987 31.1533 102.387 30.9C101.787 30.6333 101.254 30.26 100.787 29.78C100.334 29.2867 99.9738 28.7067 99.7071 28.04C99.4538 27.3733 99.3271 26.6333 99.3271 25.82C99.3271 24.9933 99.4538 24.2467 99.7071 23.58C99.9738 22.9133 100.334 22.3467 100.787 21.88C101.254 21.4 101.787 21.0333 102.387 20.78C102.987 20.5133 103.62 20.38 104.287 20.38C104.767 20.38 105.22 20.46 105.647 20.62C106.074 20.7667 106.454 20.9733 106.787 21.24C106.787 21.1333 106.787 21.0333 106.787 20.94C106.787 20.8467 106.787 20.7533 106.787 20.66C107.334 20.66 107.887 20.66 108.447 20.66C109.007 20.66 109.554 20.66 110.087 20.66C110.087 22.3667 110.087 24.0933 110.087 25.84C110.087 27.5733 110.087 29.2933 110.087 31C109.554 31 109.007 31 108.447 31C107.887 31 107.334 31 106.787 31ZM104.747 28.36C105.387 28.36 105.9 28.1267 106.287 27.66C106.674 27.1933 106.867 26.58 106.867 25.82C106.867 25.06 106.674 24.4533 106.287 24C105.9 23.5333 105.387 23.3 104.747 23.3C104.094 23.3 103.574 23.5267 103.187 23.98C102.814 24.4333 102.627 25.0467 102.627 25.82C102.627 26.5933 102.814 27.2133 103.187 27.68C103.574 28.1333 104.094 28.36 104.747 28.36Z" fill="white"/>
<path d="M97.6916 20.66C97.6916 22.3666 97.6916 24.0933 97.6916 25.84C97.6916 27.5733 97.6916 29.2933 97.6916 31C97.1583 31 96.6116 31 96.0516 31C95.4916 31 94.9383 31 94.3916 31C94.3916 30.9066 94.3916 30.82 94.3916 30.74C94.3916 30.66 94.3916 30.5733 94.3916 30.48C94.0316 30.7333 93.625 30.9266 93.1716 31.06C92.7316 31.2066 92.2516 31.28 91.7316 31.28C90.9716 31.28 90.2983 31.1066 89.7116 30.76C89.1383 30.4133 88.685 29.9133 88.3516 29.26C88.0316 28.6066 87.8716 27.8333 87.8716 26.94C87.8716 25.9 87.8716 24.8533 87.8716 23.8C87.8716 22.7466 87.8716 21.7 87.8716 20.66C88.4183 20.66 88.9716 20.66 89.5316 20.66C90.0916 20.66 90.6383 20.66 91.1716 20.66C91.1716 21.62 91.1716 22.5933 91.1716 23.58C91.1716 24.5666 91.1716 25.54 91.1716 26.5C91.1716 27.0333 91.2916 27.4666 91.5316 27.8C91.785 28.12 92.1783 28.28 92.7116 28.28C93.245 28.28 93.6583 28.1266 93.9516 27.82C94.245 27.5133 94.3916 27.0733 94.3916 26.5C94.3916 25.54 94.3916 24.5666 94.3916 23.58C94.3916 22.5933 94.3916 21.62 94.3916 20.66C94.9383 20.66 95.4916 20.66 96.0516 20.66C96.6116 20.66 97.1583 20.66 97.6916 20.66Z" fill="white"/>
<path d="M79.5651 31.32C78.5917 31.32 77.6917 31.1467 76.8651 30.8C76.0384 30.44 75.3251 29.94 74.7251 29.3C74.1251 28.66 73.6584 27.9067 73.3251 27.04C72.9917 26.16 72.8251 25.2067 72.8251 24.18C72.8251 23.1533 72.9917 22.2067 73.3251 21.34C73.6584 20.4733 74.1251 19.7267 74.7251 19.1C75.3251 18.46 76.0384 17.9667 76.8651 17.62C77.6917 17.26 78.5917 17.08 79.5651 17.08C80.5384 17.08 81.4317 17.26 82.2451 17.62C83.0717 17.9667 83.7851 18.46 84.3851 19.1C84.9984 19.7267 85.4717 20.4733 85.8051 21.34C86.1384 22.2067 86.3051 23.1533 86.3051 24.18C86.3051 25.2867 86.1117 26.3067 85.7251 27.24C85.3384 28.16 84.8051 28.94 84.1251 29.58C84.3117 29.8867 84.5051 30.2067 84.7051 30.54C84.9051 30.86 85.0984 31.1733 85.2851 31.48C84.8317 31.7467 84.3717 32.02 83.9051 32.3C83.4517 32.58 82.9984 32.8533 82.5451 33.12C82.3451 32.7867 82.1384 32.4467 81.9251 32.1C81.7251 31.7667 81.5251 31.4333 81.3251 31.1C81.0451 31.1667 80.7584 31.22 80.4651 31.26C80.1717 31.3 79.8717 31.32 79.5651 31.32ZM76.4051 24.18C76.4051 24.94 76.5251 25.6133 76.7651 26.2C77.0184 26.7867 77.3784 27.2467 77.8451 27.58C78.3117 27.9133 78.8584 28.0867 79.4851 28.1C79.2717 27.7533 79.0584 27.4067 78.8451 27.06C78.6451 26.7133 78.4384 26.3733 78.2251 26.04C78.6784 25.7733 79.1317 25.5 79.5851 25.22C80.0517 24.94 80.5117 24.6667 80.9651 24.4C81.1784 24.7333 81.3851 25.0733 81.5851 25.42C81.7984 25.7667 82.0117 26.1133 82.2251 26.46C82.3851 26.1533 82.5051 25.8067 82.5851 25.42C82.6784 25.0333 82.7251 24.62 82.7251 24.18C82.7251 23.4067 82.5917 22.7333 82.3251 22.16C82.0717 21.5867 81.7117 21.14 81.2451 20.82C80.7784 20.4867 80.2184 20.32 79.5651 20.32C78.9251 20.32 78.3651 20.48 77.8851 20.8C77.4184 21.12 77.0517 21.5733 76.7851 22.16C76.5317 22.7333 76.4051 23.4067 76.4051 24.18Z" fill="white"/>
</svg>
